<svg width="393" height="98" viewBox="0 0 393 98" fill="none" xmlns="http://www.w3.org/2000/svg">
<rect x="96" y="5" width="50" height="50" rx="25" fill="#111111"/>
<path d="M393 82C393 90.8366 385.837 98 377 98H16C7.16345 98 0 90.8366 0 82V46C0 37.1634 7.16344 30 16 30H75C83.8366 30 90.6624 37.6486 95.162 45.2538C100.384 54.0807 110.001 60 121 60C131.999 60 141.616 54.0807 146.838 45.2538C151.338 37.6486 158.163 30 167 30H377C385.837 30 393 37.1634 393 46V82Z" fill="#111111"/>
<path d="M37.5 54.9913V57.0833C37.5 59.8331 37.5 61.208 38.3543 62.0624C39.2085 62.9166 40.5835 62.9166 43.3333 62.9166H46.6667C49.4165 62.9166 50.7914 62.9166 51.6457 62.0624C52.5 61.208 52.5 59.8331 52.5 57.0833V54.9913C52.5 53.5902 52.5 52.8897 52.2034 52.2833C51.9068 51.6769 51.3539 51.2468 50.248 50.3867L48.5813 49.0904C46.8609 47.7523 46.0007 47.0833 45 47.0833C43.9992 47.0833 43.1391 47.7523 41.4187 49.0904L39.752 50.3867C38.6461 51.2468 38.0932 51.6769 37.7966 52.2833C37.5 52.8897 37.5 53.5902 37.5 54.9913Z" stroke="#646464" stroke-width="1.25" stroke-linecap="round" stroke-linejoin="round"/>
<path d="M47.5 59.1667C46.8338 59.6854 45.9585 60.0001 45 60.0001C44.0414 60.0001 43.1663 59.6854 42.5 59.1667" stroke="#646464" stroke-width="1.25" stroke-linecap="round" stroke-linejoin="round"/>
<path d="M36.0049 73.05V80H34.8649V76.96H31.5949V80H30.4549V73.05H31.5949V76.03H34.8649V73.05H36.0049ZM40.0957 80.09C39.5757 80.09 39.1057 79.9733 38.6857 79.74C38.2657 79.5 37.9357 79.1667 37.6957 78.74C37.4557 78.3067 37.3357 77.8067 37.3357 77.24C37.3357 76.68 37.459 76.1833 37.7057 75.75C37.9523 75.3167 38.289 74.9833 38.7157 74.75C39.1423 74.5167 39.619 74.4 40.1457 74.4C40.6723 74.4 41.149 74.5167 41.5757 74.75C42.0023 74.9833 42.339 75.3167 42.5857 75.75C42.8323 76.1833 42.9557 76.68 42.9557 77.24C42.9557 77.8 42.829 78.2967 42.5757 78.73C42.3223 79.1633 41.9757 79.5 41.5357 79.74C41.1023 79.9733 40.6223 80.09 40.0957 80.09ZM40.0957 79.1C40.389 79.1 40.6623 79.03 40.9157 78.89C41.1757 78.75 41.3857 78.54 41.5457 78.26C41.7057 77.98 41.7857 77.64 41.7857 77.24C41.7857 76.84 41.709 76.5033 41.5557 76.23C41.4023 75.95 41.199 75.74 40.9457 75.6C40.6923 75.46 40.419 75.39 40.1257 75.39C39.8323 75.39 39.559 75.46 39.3057 75.6C39.059 75.74 38.8623 75.95 38.7157 76.23C38.569 76.5033 38.4957 76.84 38.4957 77.24C38.4957 77.8333 38.6457 78.2933 38.9457 78.62C39.2523 78.94 39.6357 79.1 40.0957 79.1ZM50.9526 74.4C51.3859 74.4 51.7726 74.49 52.1126 74.67C52.4593 74.85 52.7293 75.1167 52.9226 75.47C53.1226 75.8233 53.2226 76.25 53.2226 76.75V80H52.0926V76.92C52.0926 76.4267 51.9693 76.05 51.7226 75.79C51.4759 75.5233 51.1393 75.39 50.7126 75.39C50.2859 75.39 49.9459 75.5233 49.6926 75.79C49.4459 76.05 49.3226 76.4267 49.3226 76.92V80H48.1926V76.92C48.1926 76.4267 48.0693 76.05 47.8226 75.79C47.5759 75.5233 47.2393 75.39 46.8126 75.39C46.3859 75.39 46.0459 75.5233 45.7926 75.79C45.5459 76.05 45.4226 76.4267 45.4226 76.92V80H44.2826V74.49H45.4226V75.12C45.6093 74.8933 45.8459 74.7167 46.1326 74.59C46.4193 74.4633 46.7259 74.4 47.0526 74.4C47.4926 74.4 47.8859 74.4933 48.2326 74.68C48.5793 74.8667 48.8459 75.1367 49.0326 75.49C49.1993 75.1567 49.4593 74.8933 49.8126 74.7C50.1659 74.5 50.5459 74.4 50.9526 74.4ZM59.9232 77.11C59.9232 77.3167 59.9099 77.5033 59.8832 77.67H55.6732C55.7066 78.11 55.8699 78.4633 56.1632 78.73C56.4566 78.9967 56.8166 79.13 57.2432 79.13C57.8566 79.13 58.2899 78.8733 58.5432 78.36H59.7732C59.6066 78.8667 59.3032 79.2833 58.8632 79.61C58.4299 79.93 57.8899 80.09 57.2432 80.09C56.7166 80.09 56.2432 79.9733 55.8232 79.74C55.4099 79.5 55.0832 79.1667 54.8432 78.74C54.6099 78.3067 54.4932 77.8067 54.4932 77.24C54.4932 76.6733 54.6066 76.1767 54.8332 75.75C55.0666 75.3167 55.3899 74.9833 55.8032 74.75C56.2232 74.5167 56.7032 74.4 57.2432 74.4C57.7632 74.4 58.2266 74.5133 58.6332 74.74C59.0399 74.9667 59.3566 75.2867 59.5832 75.7C59.8099 76.1067 59.9232 76.5767 59.9232 77.11ZM58.7332 76.75C58.7266 76.33 58.5766 75.9933 58.2832 75.74C57.9899 75.4867 57.6266 75.36 57.1932 75.36C56.7999 75.36 56.4632 75.4867 56.1832 75.74C55.9032 75.9867 55.7366 76.3233 55.6832 76.75H58.7332Z" fill="#646464"/>
<path d="M126 35.0001L130 39.0001" stroke="#EDEDED" stroke-width="1.5" stroke-linecap="round" stroke-linejoin="round"/>
<path d="M128 29C128 24.5817 124.418 21 120 21C115.582 21 112 24.5817 112 29C112 33.4183 115.582 37 120 37C124.418 37 128 33.4183 128 29Z" fill="#353535" stroke="#EDEDED" stroke-width="1.5" stroke-linecap="round" stroke-linejoin="round"/>
<path d="M105.744 80.07C105.257 80.07 104.817 79.9867 104.424 79.82C104.037 79.6533 103.73 79.4133 103.504 79.1C103.277 78.7867 103.16 78.4167 103.154 77.99H104.654C104.674 78.2767 104.774 78.5033 104.954 78.67C105.14 78.8367 105.394 78.92 105.714 78.92C106.04 78.92 106.297 78.8433 106.484 78.69C106.67 78.53 106.764 78.3233 106.764 78.07C106.764 77.8633 106.7 77.6933 106.574 77.56C106.447 77.4267 106.287 77.3233 106.094 77.25C105.907 77.17 105.647 77.0833 105.314 76.99C104.86 76.8567 104.49 76.7267 104.204 76.6C103.924 76.4667 103.68 76.27 103.474 76.01C103.274 75.7433 103.174 75.39 103.174 74.95C103.174 74.5367 103.277 74.1767 103.484 73.87C103.69 73.5633 103.98 73.33 104.354 73.17C104.727 73.0033 105.154 72.92 105.634 72.92C106.354 72.92 106.937 73.0967 107.384 73.45C107.837 73.7967 108.087 74.2833 108.134 74.91H106.594C106.58 74.67 106.477 74.4733 106.284 74.32C106.097 74.16 105.847 74.08 105.534 74.08C105.26 74.08 105.04 74.15 104.874 74.29C104.714 74.43 104.634 74.6333 104.634 74.9C104.634 75.0867 104.694 75.2433 104.814 75.37C104.94 75.49 105.094 75.59 105.274 75.67C105.46 75.7433 105.72 75.83 106.054 75.93C106.507 76.0633 106.877 76.1967 107.164 76.33C107.45 76.4633 107.697 76.6633 107.904 76.93C108.11 77.1967 108.214 77.5467 108.214 77.98C108.214 78.3533 108.117 78.7 107.924 79.02C107.73 79.34 107.447 79.5967 107.074 79.79C106.7 79.9767 106.257 80.07 105.744 80.07ZM114.777 77.11C114.777 77.31 114.764 77.49 114.737 77.65H110.687C110.721 78.05 110.861 78.3633 111.107 78.59C111.354 78.8167 111.657 78.93 112.017 78.93C112.537 78.93 112.907 78.7067 113.127 78.26H114.637C114.477 78.7933 114.171 79.2333 113.717 79.58C113.264 79.92 112.707 80.09 112.047 80.09C111.514 80.09 111.034 79.9733 110.607 79.74C110.187 79.5 109.857 79.1633 109.617 78.73C109.384 78.2967 109.267 77.7967 109.267 77.23C109.267 76.6567 109.384 76.1533 109.617 75.72C109.851 75.2867 110.177 74.9533 110.597 74.72C111.017 74.4867 111.501 74.37 112.047 74.37C112.574 74.37 113.044 74.4833 113.457 74.71C113.877 74.9367 114.201 75.26 114.427 75.68C114.661 76.0933 114.777 76.57 114.777 77.11ZM113.327 76.71C113.321 76.35 113.191 76.0633 112.937 75.85C112.684 75.63 112.374 75.52 112.007 75.52C111.661 75.52 111.367 75.6267 111.127 75.84C110.894 76.0467 110.751 76.3367 110.697 76.71H113.327ZM115.639 77.21C115.639 76.65 115.749 76.1533 115.969 75.72C116.196 75.2867 116.499 74.9533 116.879 74.72C117.266 74.4867 117.696 74.37 118.169 74.37C118.583 74.37 118.943 74.4533 119.249 74.62C119.563 74.7867 119.813 74.9967 119.999 75.25V74.46H121.409V80H119.999V79.19C119.819 79.45 119.569 79.6667 119.249 79.84C118.936 80.0067 118.573 80.09 118.159 80.09C117.693 80.09 117.266 79.97 116.879 79.73C116.499 79.49 116.196 79.1533 115.969 78.72C115.749 78.28 115.639 77.7767 115.639 77.21ZM119.999 77.23C119.999 76.89 119.933 76.6 119.799 76.36C119.666 76.1133 119.486 75.9267 119.259 75.8C119.033 75.6667 118.789 75.6 118.529 75.6C118.269 75.6 118.029 75.6633 117.809 75.79C117.589 75.9167 117.409 76.1033 117.269 76.35C117.136 76.59 117.069 76.8767 117.069 77.21C117.069 77.5433 117.136 77.8367 117.269 78.09C117.409 78.3367 117.589 78.5267 117.809 78.66C118.036 78.7933 118.276 78.86 118.529 78.86C118.789 78.86 119.033 78.7967 119.259 78.67C119.486 78.5367 119.666 78.35 119.799 78.11C119.933 77.8633 119.999 77.57 119.999 77.23ZM124.377 75.32C124.557 75.0267 124.79 74.7967 125.077 74.63C125.37 74.4633 125.703 74.38 126.077 74.38V75.85H125.707C125.267 75.85 124.933 75.9533 124.707 76.16C124.487 76.3667 124.377 76.7267 124.377 77.24V80H122.977V74.46H124.377V75.32ZM126.859 77.23C126.859 76.6567 126.976 76.1567 127.209 75.73C127.443 75.2967 127.766 74.9633 128.179 74.73C128.593 74.49 129.066 74.37 129.599 74.37C130.286 74.37 130.853 74.5433 131.299 74.89C131.753 75.23 132.056 75.71 132.209 76.33H130.699C130.619 76.09 130.483 75.9033 130.289 75.77C130.103 75.63 129.869 75.56 129.589 75.56C129.189 75.56 128.873 75.7067 128.639 76C128.406 76.2867 128.289 76.6967 128.289 77.23C128.289 77.7567 128.406 78.1667 128.639 78.46C128.873 78.7467 129.189 78.89 129.589 78.89C130.156 78.89 130.526 78.6367 130.699 78.13H132.209C132.056 78.73 131.753 79.2067 131.299 79.56C130.846 79.9133 130.279 80.09 129.599 80.09C129.066 80.09 128.593 79.9733 128.179 79.74C127.766 79.5 127.443 79.1667 127.209 78.74C126.976 78.3067 126.859 77.8033 126.859 77.23ZM136.555 74.38C136.975 74.38 137.348 74.4733 137.675 74.66C138.002 74.84 138.255 75.11 138.435 75.47C138.622 75.8233 138.715 76.25 138.715 76.75V80H137.315V76.94C137.315 76.5 137.205 76.1633 136.985 75.93C136.765 75.69 136.465 75.57 136.085 75.57C135.698 75.57 135.392 75.69 135.165 75.93C134.945 76.1633 134.835 76.5 134.835 76.94V80H133.435V72.6H134.835V75.15C135.015 74.91 135.255 74.7233 135.555 74.59C135.855 74.45 136.188 74.38 136.555 74.38Z" fill="#EDEDED"/>
<path d="M195.333 50.8333L194.903 51.995C194.34 53.5183 194.058 54.2799 193.502 54.8356C192.947 55.3912 192.185 55.673 190.662 56.2368L189.5 56.6666L190.662 57.0964C192.185 57.6602 192.947 57.942 193.502 58.4976C194.058 59.0533 194.34 59.8149 194.903 61.3382L195.333 62.4999L195.763 61.3382C196.327 59.8149 196.609 59.0533 197.164 58.4976C197.72 57.942 198.482 57.6602 200.005 57.0964L201.167 56.6666L200.005 56.2368C198.482 55.673 197.72 55.3912 197.164 54.8356C196.609 54.2799 196.327 53.5183 195.763 51.995L195.333 50.8333Z" stroke="#646464" stroke-width="1.25" stroke-linejoin="round"/>
<path d="M202 47.5L201.816 47.9979C201.574 48.6507 201.453 48.9772 201.215 49.2153C200.977 49.4534 200.651 49.5742 199.998 49.8158L199.5 50L199.998 50.1842C200.651 50.4258 200.977 50.5466 201.215 50.7847C201.453 51.0228 201.574 51.3493 201.816 52.0021L202 52.5L202.184 52.0021C202.426 51.3493 202.547 51.0228 202.785 50.7847C203.023 50.5466 203.349 50.4258 204.002 50.1842L204.5 50L204.002 49.8158C203.349 49.5742 203.023 49.4534 202.785 49.2153C202.547 48.9772 202.426 48.6507 202.184 47.9979L202 47.5Z" stroke="#646464" stroke-width="1.25" stroke-linejoin="round"/>
<path d="M177.348 73.05V80H176.208V73.05H177.348ZM185.714 74.4C186.148 74.4 186.534 74.49 186.874 74.67C187.221 74.85 187.491 75.1167 187.684 75.47C187.884 75.8233 187.984 76.25 187.984 76.75V80H186.854V76.92C186.854 76.4267 186.731 76.05 186.484 75.79C186.238 75.5233 185.901 75.39 185.474 75.39C185.048 75.39 184.708 75.5233 184.454 75.79C184.208 76.05 184.084 76.4267 184.084 76.92V80H182.954V76.92C182.954 76.4267 182.831 76.05 182.584 75.79C182.338 75.5233 182.001 75.39 181.574 75.39C181.148 75.39 180.808 75.5233 180.554 75.79C180.308 76.05 180.184 76.4267 180.184 76.92V80H179.044V74.49H180.184V75.12C180.371 74.8933 180.608 74.7167 180.894 74.59C181.181 74.4633 181.488 74.4 181.814 74.4C182.254 74.4 182.648 74.4933 182.994 74.68C183.341 74.8667 183.608 75.1367 183.794 75.49C183.961 75.1567 184.221 74.8933 184.574 74.7C184.928 74.5 185.308 74.4 185.714 74.4ZM189.255 77.22C189.255 76.6667 189.368 76.1767 189.595 75.75C189.828 75.3233 190.142 74.9933 190.535 74.76C190.935 74.52 191.375 74.4 191.855 74.4C192.288 74.4 192.665 74.4867 192.985 74.66C193.312 74.8267 193.572 75.0367 193.765 75.29V74.49H194.915V80H193.765V79.18C193.572 79.44 193.308 79.6567 192.975 79.83C192.642 80.0033 192.262 80.09 191.835 80.09C191.362 80.09 190.928 79.97 190.535 79.73C190.142 79.4833 189.828 79.1433 189.595 78.71C189.368 78.27 189.255 77.7733 189.255 77.22ZM193.765 77.24C193.765 76.86 193.685 76.53 193.525 76.25C193.372 75.97 193.168 75.7567 192.915 75.61C192.662 75.4633 192.388 75.39 192.095 75.39C191.802 75.39 191.528 75.4633 191.275 75.61C191.022 75.75 190.815 75.96 190.655 76.24C190.502 76.5133 190.425 76.84 190.425 77.22C190.425 77.6 190.502 77.9333 190.655 78.22C190.815 78.5067 191.022 78.7267 191.275 78.88C191.535 79.0267 191.808 79.1 192.095 79.1C192.388 79.1 192.662 79.0267 192.915 78.88C193.168 78.7333 193.372 78.52 193.525 78.24C193.685 77.9533 193.765 77.62 193.765 77.24ZM198.832 74.4C199.259 74.4 199.636 74.4867 199.962 74.66C200.296 74.8267 200.556 75.0367 200.742 75.29V74.49H201.892V80.09C201.892 80.5967 201.786 81.0467 201.572 81.44C201.359 81.84 201.049 82.1533 200.642 82.38C200.242 82.6067 199.762 82.72 199.202 82.72C198.456 82.72 197.836 82.5433 197.342 82.19C196.849 81.8433 196.569 81.37 196.502 80.77H197.632C197.719 81.0567 197.902 81.2867 198.182 81.46C198.469 81.64 198.809 81.73 199.202 81.73C199.662 81.73 200.032 81.59 200.312 81.31C200.599 81.03 200.742 80.6233 200.742 80.09V79.17C200.549 79.43 200.286 79.65 199.952 79.83C199.626 80.0033 199.252 80.09 198.832 80.09C198.352 80.09 197.912 79.97 197.512 79.73C197.119 79.4833 196.806 79.1433 196.572 78.71C196.346 78.27 196.232 77.7733 196.232 77.22C196.232 76.6667 196.346 76.1767 196.572 75.75C196.806 75.3233 197.119 74.9933 197.512 74.76C197.912 74.52 198.352 74.4 198.832 74.4ZM200.742 77.24C200.742 76.86 200.662 76.53 200.502 76.25C200.349 75.97 200.146 75.7567 199.892 75.61C199.639 75.4633 199.366 75.39 199.072 75.39C198.779 75.39 198.506 75.4633 198.252 75.61C197.999 75.75 197.792 75.96 197.632 76.24C197.479 76.5133 197.402 76.84 197.402 77.22C197.402 77.6 197.479 77.9333 197.632 78.22C197.792 78.5067 197.999 78.7267 198.252 78.88C198.512 79.0267 198.786 79.1 199.072 79.1C199.366 79.1 199.639 79.0267 199.892 78.88C200.146 78.7333 200.349 78.52 200.502 78.24C200.662 77.9533 200.742 77.62 200.742 77.24ZM204.17 73.76C203.963 73.76 203.79 73.69 203.65 73.55C203.51 73.41 203.44 73.2367 203.44 73.03C203.44 72.8233 203.51 72.65 203.65 72.51C203.79 72.37 203.963 72.3 204.17 72.3C204.37 72.3 204.54 72.37 204.68 72.51C204.82 72.65 204.89 72.8233 204.89 73.03C204.89 73.2367 204.82 73.41 204.68 73.55C204.54 73.69 204.37 73.76 204.17 73.76ZM204.73 74.49V80H203.59V74.49H204.73ZM209.206 74.4C209.64 74.4 210.026 74.49 210.366 74.67C210.713 74.85 210.983 75.1167 211.176 75.47C211.37 75.8233 211.466 76.25 211.466 76.75V80H210.336V76.92C210.336 76.4267 210.213 76.05 209.966 75.79C209.72 75.5233 209.383 75.39 208.956 75.39C208.53 75.39 208.19 75.5233 207.936 75.79C207.69 76.05 207.566 76.4267 207.566 76.92V80H206.426V74.49H207.566V75.12C207.753 74.8933 207.99 74.7167 208.276 74.59C208.57 74.4633 208.88 74.4 209.206 74.4ZM218.171 77.11C218.171 77.3167 218.157 77.5033 218.131 77.67H213.921C213.954 78.11 214.117 78.4633 214.411 78.73C214.704 78.9967 215.064 79.13 215.491 79.13C216.104 79.13 216.537 78.8733 216.791 78.36H218.021C217.854 78.8667 217.551 79.2833 217.111 79.61C216.677 79.93 216.137 80.09 215.491 80.09C214.964 80.09 214.491 79.9733 214.071 79.74C213.657 79.5 213.331 79.1667 213.091 78.74C212.857 78.3067 212.741 77.8067 212.741 77.24C212.741 76.6733 212.854 76.1767 213.081 75.75C213.314 75.3167 213.637 74.9833 214.051 74.75C214.471 74.5167 214.951 74.4 215.491 74.4C216.011 74.4 216.474 74.5133 216.881 74.74C217.287 74.9667 217.604 75.2867 217.831 75.7C218.057 76.1067 218.171 76.5767 218.171 77.11ZM216.981 76.75C216.974 76.33 216.824 75.9933 216.531 75.74C216.237 75.4867 215.874 75.36 215.441 75.36C215.047 75.36 214.711 75.4867 214.431 75.74C214.151 75.9867 213.984 76.3233 213.931 76.75H216.981Z" fill="#646464"/>
<path d="M280.54 47.5441C278.725 45.5894 265.072 50.3776 265.083 52.1258C265.096 54.1082 270.415 54.718 271.889 55.1317C272.776 55.3804 273.013 55.6354 273.218 56.565C274.143 60.7754 274.608 62.8695 275.668 62.9163C277.356 62.9909 282.311 49.4516 280.54 47.5441Z" stroke="#646464" stroke-width="1.25"/>
<path d="M272.583 55.4167L275.5 52.5" stroke="#646464" stroke-width="1.25" stroke-linecap="round" stroke-linejoin="round"/>
<path d="M257.77 73.05V80H256.63V75.24L254.51 80H253.72L251.59 75.24V80H250.45V73.05H251.68L254.12 78.5L256.55 73.05H257.77ZM264.518 77.11C264.518 77.3167 264.505 77.5033 264.478 77.67H260.268C260.301 78.11 260.465 78.4633 260.758 78.73C261.051 78.9967 261.411 79.13 261.838 79.13C262.451 79.13 262.885 78.8733 263.138 78.36H264.368C264.201 78.8667 263.898 79.2833 263.458 79.61C263.025 79.93 262.485 80.09 261.838 80.09C261.311 80.09 260.838 79.9733 260.418 79.74C260.005 79.5 259.678 79.1667 259.438 78.74C259.205 78.3067 259.088 77.8067 259.088 77.24C259.088 76.6733 259.201 76.1767 259.428 75.75C259.661 75.3167 259.985 74.9833 260.398 74.75C260.818 74.5167 261.298 74.4 261.838 74.4C262.358 74.4 262.821 74.5133 263.228 74.74C263.635 74.9667 263.951 75.2867 264.178 75.7C264.405 76.1067 264.518 76.5767 264.518 77.11ZM263.328 76.75C263.321 76.33 263.171 75.9933 262.878 75.74C262.585 75.4867 262.221 75.36 261.788 75.36C261.395 75.36 261.058 75.4867 260.778 75.74C260.498 75.9867 260.331 76.3233 260.278 76.75H263.328ZM267.84 80.09C267.407 80.09 267.017 80.0133 266.67 79.86C266.33 79.7 266.06 79.4867 265.86 79.22C265.66 78.9467 265.553 78.6433 265.54 78.31H266.72C266.74 78.5433 266.85 78.74 267.05 78.9C267.257 79.0533 267.513 79.13 267.82 79.13C268.14 79.13 268.387 79.07 268.56 78.95C268.74 78.8233 268.83 78.6633 268.83 78.47C268.83 78.2633 268.73 78.11 268.53 78.01C268.337 77.91 268.027 77.8 267.6 77.68C267.187 77.5667 266.85 77.4567 266.59 77.35C266.33 77.2433 266.103 77.08 265.91 76.86C265.723 76.64 265.63 76.35 265.63 75.99C265.63 75.6967 265.717 75.43 265.89 75.19C266.063 74.9433 266.31 74.75 266.63 74.61C266.957 74.47 267.33 74.4 267.75 74.4C268.377 74.4 268.88 74.56 269.26 74.88C269.647 75.1933 269.853 75.6233 269.88 76.17H268.74C268.72 75.9233 268.62 75.7267 268.44 75.58C268.26 75.4333 268.017 75.36 267.71 75.36C267.41 75.36 267.18 75.4167 267.02 75.53C266.86 75.6433 266.78 75.7933 266.78 75.98C266.78 76.1267 266.833 76.25 266.94 76.35C267.047 76.45 267.177 76.53 267.33 76.59C267.483 76.6433 267.71 76.7133 268.01 76.8C268.41 76.9067 268.737 77.0167 268.99 77.13C269.25 77.2367 269.473 77.3967 269.66 77.61C269.847 77.8233 269.943 78.1067 269.95 78.46C269.95 78.7733 269.863 79.0533 269.69 79.3C269.517 79.5467 269.27 79.74 268.95 79.88C268.637 80.02 268.267 80.09 267.84 80.09ZM273.382 80.09C272.949 80.09 272.559 80.0133 272.212 79.86C271.872 79.7 271.602 79.4867 271.402 79.22C271.202 78.9467 271.095 78.6433 271.082 78.31H272.262C272.282 78.5433 272.392 78.74 272.592 78.9C272.799 79.0533 273.055 79.13 273.362 79.13C273.682 79.13 273.929 79.07 274.102 78.95C274.282 78.8233 274.372 78.6633 274.372 78.47C274.372 78.2633 274.272 78.11 274.072 78.01C273.879 77.91 273.569 77.8 273.142 77.68C272.729 77.5667 272.392 77.4567 272.132 77.35C271.872 77.2433 271.645 77.08 271.452 76.86C271.265 76.64 271.172 76.35 271.172 75.99C271.172 75.6967 271.259 75.43 271.432 75.19C271.605 74.9433 271.852 74.75 272.172 74.61C272.499 74.47 272.872 74.4 273.292 74.4C273.919 74.4 274.422 74.56 274.802 74.88C275.189 75.1933 275.395 75.6233 275.422 76.17H274.282C274.262 75.9233 274.162 75.7267 273.982 75.58C273.802 75.4333 273.559 75.36 273.252 75.36C272.952 75.36 272.722 75.4167 272.562 75.53C272.402 75.6433 272.322 75.7933 272.322 75.98C272.322 76.1267 272.375 76.25 272.482 76.35C272.589 76.45 272.719 76.53 272.872 76.59C273.025 76.6433 273.252 76.7133 273.552 76.8C273.952 76.9067 274.279 77.0167 274.532 77.13C274.792 77.2367 275.015 77.3967 275.202 77.61C275.389 77.8233 275.485 78.1067 275.492 78.46C275.492 78.7733 275.405 79.0533 275.232 79.3C275.059 79.5467 274.812 79.74 274.492 79.88C274.179 80.02 273.809 80.09 273.382 80.09ZM276.544 77.22C276.544 76.6667 276.657 76.1767 276.884 75.75C277.117 75.3233 277.43 74.9933 277.824 74.76C278.224 74.52 278.664 74.4 279.144 74.4C279.577 74.4 279.954 74.4867 280.274 74.66C280.6 74.8267 280.86 75.0367 281.054 75.29V74.49H282.204V80H281.054V79.18C280.86 79.44 280.597 79.6567 280.264 79.83C279.93 80.0033 279.55 80.09 279.124 80.09C278.65 80.09 278.217 79.97 277.824 79.73C277.43 79.4833 277.117 79.1433 276.884 78.71C276.657 78.27 276.544 77.7733 276.544 77.22ZM281.054 77.24C281.054 76.86 280.974 76.53 280.814 76.25C280.66 75.97 280.457 75.7567 280.204 75.61C279.95 75.4633 279.677 75.39 279.384 75.39C279.09 75.39 278.817 75.4633 278.564 75.61C278.31 75.75 278.104 75.96 277.944 76.24C277.79 76.5133 277.714 76.84 277.714 77.22C277.714 77.6 277.79 77.9333 277.944 78.22C278.104 78.5067 278.31 78.7267 278.564 78.88C278.824 79.0267 279.097 79.1 279.384 79.1C279.677 79.1 279.95 79.0267 280.204 78.88C280.457 78.7333 280.66 78.52 280.814 78.24C280.974 77.9533 281.054 77.62 281.054 77.24ZM286.121 74.4C286.548 74.4 286.924 74.4867 287.251 74.66C287.584 74.8267 287.844 75.0367 288.031 75.29V74.49H289.181V80.09C289.181 80.5967 289.074 81.0467 288.861 81.44C288.648 81.84 288.338 82.1533 287.931 82.38C287.531 82.6067 287.051 82.72 286.491 82.72C285.744 82.72 285.124 82.5433 284.631 82.19C284.138 81.8433 283.858 81.37 283.791 80.77H284.921C285.008 81.0567 285.191 81.2867 285.471 81.46C285.758 81.64 286.098 81.73 286.491 81.73C286.951 81.73 287.321 81.59 287.601 81.31C287.888 81.03 288.031 80.6233 288.031 80.09V79.17C287.838 79.43 287.574 79.65 287.241 79.83C286.914 80.0033 286.541 80.09 286.121 80.09C285.641 80.09 285.201 79.97 284.801 79.73C284.408 79.4833 284.094 79.1433 283.861 78.71C283.634 78.27 283.521 77.7733 283.521 77.22C283.521 76.6667 283.634 76.1767 283.861 75.75C284.094 75.3233 284.408 74.9933 284.801 74.76C285.201 74.52 285.641 74.4 286.121 74.4ZM288.031 77.24C288.031 76.86 287.951 76.53 287.791 76.25C287.638 75.97 287.434 75.7567 287.181 75.61C286.928 75.4633 286.654 75.39 286.361 75.39C286.068 75.39 285.794 75.4633 285.541 75.61C285.288 75.75 285.081 75.96 284.921 76.24C284.768 76.5133 284.691 76.84 284.691 77.22C284.691 77.6 284.768 77.9333 284.921 78.22C285.081 78.5067 285.288 78.7267 285.541 78.88C285.801 79.0267 286.074 79.1 286.361 79.1C286.654 79.1 286.928 79.0267 287.181 78.88C287.434 78.7333 287.638 78.52 287.791 78.24C287.951 77.9533 288.031 77.62 288.031 77.24ZM295.928 77.11C295.928 77.3167 295.915 77.5033 295.888 77.67H291.678C291.712 78.11 291.875 78.4633 292.168 78.73C292.462 78.9967 292.822 79.13 293.248 79.13C293.862 79.13 294.295 78.8733 294.548 78.36H295.778C295.612 78.8667 295.308 79.2833 294.868 79.61C294.435 79.93 293.895 80.09 293.248 80.09C292.722 80.09 292.248 79.9733 291.828 79.74C291.415 79.5 291.088 79.1667 290.848 78.74C290.615 78.3067 290.498 77.8067 290.498 77.24C290.498 76.6733 290.612 76.1767 290.838 75.75C291.072 75.3167 291.395 74.9833 291.808 74.75C292.228 74.5167 292.708 74.4 293.248 74.4C293.768 74.4 294.232 74.5133 294.638 74.74C295.045 74.9667 295.362 75.2867 295.588 75.7C295.815 76.1067 295.928 76.5767 295.928 77.11ZM294.738 76.75C294.732 76.33 294.582 75.9933 294.288 75.74C293.995 75.4867 293.632 75.36 293.198 75.36C292.805 75.36 292.468 75.4867 292.188 75.74C291.908 75.9867 291.742 76.3233 291.688 76.75H294.738Z" fill="#646464"/>
<path d="M352.333 50.8333C352.333 52.6743 350.841 54.1667 349 54.1667C347.159 54.1667 345.667 52.6743 345.667 50.8333C345.667 48.9924 347.159 47.5 349 47.5C350.841 47.5 352.333 48.9924 352.333 50.8333Z" stroke="#646464" stroke-width="1.25"/>
<path d="M350.667 56.6667H347.333C345.032 56.6667 343.167 58.5322 343.167 60.8334C343.167 61.7539 343.913 62.5001 344.833 62.5001H353.167C354.087 62.5001 354.833 61.7539 354.833 60.8334C354.833 58.5322 352.968 56.6667 350.667 56.6667Z" stroke="#646464" stroke-width="1.25" stroke-linejoin="round"/>
<path d="M338.546 75.12C338.546 75.4733 338.463 75.8067 338.296 76.12C338.129 76.4333 337.863 76.69 337.496 76.89C337.129 77.0833 336.659 77.18 336.086 77.18H334.826V80H333.686V73.05H336.086C336.619 73.05 337.069 73.1433 337.436 73.33C337.809 73.51 338.086 73.7567 338.266 74.07C338.453 74.3833 338.546 74.7333 338.546 75.12ZM336.086 76.25C336.519 76.25 336.843 76.1533 337.056 75.96C337.269 75.76 337.376 75.48 337.376 75.12C337.376 74.36 336.946 73.98 336.086 73.98H334.826V76.25H336.086ZM340.973 75.29C341.14 75.01 341.36 74.7933 341.633 74.64C341.913 74.48 342.243 74.4 342.623 74.4V75.58H342.333C341.887 75.58 341.547 75.6933 341.313 75.92C341.087 76.1467 340.973 76.54 340.973 77.1V80H339.833V74.49H340.973V75.29ZM346.261 80.09C345.741 80.09 345.271 79.9733 344.851 79.74C344.431 79.5 344.101 79.1667 343.861 78.74C343.621 78.3067 343.501 77.8067 343.501 77.24C343.501 76.68 343.625 76.1833 343.871 75.75C344.118 75.3167 344.455 74.9833 344.881 74.75C345.308 74.5167 345.785 74.4 346.311 74.4C346.838 74.4 347.315 74.5167 347.741 74.75C348.168 74.9833 348.505 75.3167 348.751 75.75C348.998 76.1833 349.121 76.68 349.121 77.24C349.121 77.8 348.995 78.2967 348.741 78.73C348.488 79.1633 348.141 79.5 347.701 79.74C347.268 79.9733 346.788 80.09 346.261 80.09ZM346.261 79.1C346.555 79.1 346.828 79.03 347.081 78.89C347.341 78.75 347.551 78.54 347.711 78.26C347.871 77.98 347.951 77.64 347.951 77.24C347.951 76.84 347.875 76.5033 347.721 76.23C347.568 75.95 347.365 75.74 347.111 75.6C346.858 75.46 346.585 75.39 346.291 75.39C345.998 75.39 345.725 75.46 345.471 75.6C345.225 75.74 345.028 75.95 344.881 76.23C344.735 76.5033 344.661 76.84 344.661 77.24C344.661 77.8333 344.811 78.2933 345.111 78.62C345.418 78.94 345.801 79.1 346.261 79.1ZM352.758 75.42H351.738V80H350.588V75.42H349.938V74.49H350.588V74.1C350.588 73.4667 350.755 73.0067 351.088 72.72C351.428 72.4267 351.958 72.28 352.678 72.28V73.23C352.332 73.23 352.088 73.2967 351.948 73.43C351.808 73.5567 351.738 73.78 351.738 74.1V74.49H352.758V75.42ZM354.549 73.76C354.342 73.76 354.169 73.69 354.029 73.55C353.889 73.41 353.819 73.2367 353.819 73.03C353.819 72.8233 353.889 72.65 354.029 72.51C354.169 72.37 354.342 72.3 354.549 72.3C354.749 72.3 354.919 72.37 355.059 72.51C355.199 72.65 355.269 72.8233 355.269 73.03C355.269 73.2367 355.199 73.41 355.059 73.55C354.919 73.69 354.749 73.76 354.549 73.76ZM355.109 74.49V80H353.969V74.49H355.109ZM357.945 72.6V80H356.805V72.6H357.945ZM364.692 77.11C364.692 77.3167 364.679 77.5033 364.652 77.67H360.442C360.475 78.11 360.639 78.4633 360.932 78.73C361.225 78.9967 361.585 79.13 362.012 79.13C362.625 79.13 363.059 78.8733 363.312 78.36H364.542C364.375 78.8667 364.072 79.2833 363.632 79.61C363.199 79.93 362.659 80.09 362.012 80.09C361.485 80.09 361.012 79.9733 360.592 79.74C360.179 79.5 359.852 79.1667 359.612 78.74C359.379 78.3067 359.262 77.8067 359.262 77.24C359.262 76.6733 359.375 76.1767 359.602 75.75C359.835 75.3167 360.159 74.9833 360.572 74.75C360.992 74.5167 361.472 74.4 362.012 74.4C362.532 74.4 362.995 74.5133 363.402 74.74C363.809 74.9667 364.125 75.2867 364.352 75.7C364.579 76.1067 364.692 76.5767 364.692 77.11ZM363.502 76.75C363.495 76.33 363.345 75.9933 363.052 75.74C362.759 75.4867 362.395 75.36 361.962 75.36C361.569 75.36 361.232 75.4867 360.952 75.74C360.672 75.9867 360.505 76.3233 360.452 76.75H363.502Z" fill="#646464"/>
</svg>
