<svg width="393" height="98" viewBox="0 0 393 98" fill="none" xmlns="http://www.w3.org/2000/svg">
<rect x="172" y="5" width="50" height="50" rx="25" fill="#111111"/>
<path d="M393 82C393 90.8366 385.837 98 377 98H16C7.16345 98 0 90.8366 0 82V46C0 37.1634 7.16344 30 16 30H151C159.837 30 166.662 37.6486 171.162 45.2538C176.384 54.0807 186.001 60 197 60C207.999 60 217.616 54.0807 222.838 45.2538C227.338 37.6486 234.163 30 243 30H377C385.837 30 393 37.1634 393 46V82Z" fill="#111111"/>
<path d="M37.5 54.9913V57.0833C37.5 59.8331 37.5 61.208 38.3543 62.0624C39.2085 62.9166 40.5835 62.9166 43.3333 62.9166H46.6667C49.4165 62.9166 50.7914 62.9166 51.6457 62.0624C52.5 61.208 52.5 59.8331 52.5 57.0833V54.9913C52.5 53.5902 52.5 52.8897 52.2034 52.2833C51.9068 51.6769 51.3539 51.2468 50.248 50.3867L48.5813 49.0904C46.8609 47.7523 46.0007 47.0833 45 47.0833C43.9992 47.0833 43.1391 47.7523 41.4187 49.0904L39.752 50.3867C38.6461 51.2468 38.0932 51.6769 37.7966 52.2833C37.5 52.8897 37.5 53.5902 37.5 54.9913Z" stroke="#646464" stroke-width="1.25" stroke-linecap="round" stroke-linejoin="round"/>
<path d="M47.5 59.1667C46.8338 59.6854 45.9585 60.0001 45 60.0001C44.0414 60.0001 43.1663 59.6854 42.5 59.1667" stroke="#646464" stroke-width="1.25" stroke-linecap="round" stroke-linejoin="round"/>
<path d="M36.0049 73.05V80H34.8649V76.96H31.5949V80H30.4549V73.05H31.5949V76.03H34.8649V73.05H36.0049ZM40.0957 80.09C39.5757 80.09 39.1057 79.9733 38.6857 79.74C38.2657 79.5 37.9357 79.1667 37.6957 78.74C37.4557 78.3067 37.3357 77.8067 37.3357 77.24C37.3357 76.68 37.459 76.1833 37.7057 75.75C37.9523 75.3167 38.289 74.9833 38.7157 74.75C39.1423 74.5167 39.619 74.4 40.1457 74.4C40.6723 74.4 41.149 74.5167 41.5757 74.75C42.0023 74.9833 42.339 75.3167 42.5857 75.75C42.8323 76.1833 42.9557 76.68 42.9557 77.24C42.9557 77.8 42.829 78.2967 42.5757 78.73C42.3223 79.1633 41.9757 79.5 41.5357 79.74C41.1023 79.9733 40.6223 80.09 40.0957 80.09ZM40.0957 79.1C40.389 79.1 40.6623 79.03 40.9157 78.89C41.1757 78.75 41.3857 78.54 41.5457 78.26C41.7057 77.98 41.7857 77.64 41.7857 77.24C41.7857 76.84 41.709 76.5033 41.5557 76.23C41.4023 75.95 41.199 75.74 40.9457 75.6C40.6923 75.46 40.419 75.39 40.1257 75.39C39.8323 75.39 39.559 75.46 39.3057 75.6C39.059 75.74 38.8623 75.95 38.7157 76.23C38.569 76.5033 38.4957 76.84 38.4957 77.24C38.4957 77.8333 38.6457 78.2933 38.9457 78.62C39.2523 78.94 39.6357 79.1 40.0957 79.1ZM50.9526 74.4C51.3859 74.4 51.7726 74.49 52.1126 74.67C52.4593 74.85 52.7293 75.1167 52.9226 75.47C53.1226 75.8233 53.2226 76.25 53.2226 76.75V80H52.0926V76.92C52.0926 76.4267 51.9693 76.05 51.7226 75.79C51.4759 75.5233 51.1393 75.39 50.7126 75.39C50.2859 75.39 49.9459 75.5233 49.6926 75.79C49.4459 76.05 49.3226 76.4267 49.3226 76.92V80H48.1926V76.92C48.1926 76.4267 48.0693 76.05 47.8226 75.79C47.5759 75.5233 47.2393 75.39 46.8126 75.39C46.3859 75.39 46.0459 75.5233 45.7926 75.79C45.5459 76.05 45.4226 76.4267 45.4226 76.92V80H44.2826V74.49H45.4226V75.12C45.6093 74.8933 45.8459 74.7167 46.1326 74.59C46.4193 74.4633 46.7259 74.4 47.0526 74.4C47.4926 74.4 47.8859 74.4933 48.2326 74.68C48.5793 74.8667 48.8459 75.1367 49.0326 75.49C49.1993 75.1567 49.4593 74.8933 49.8126 74.7C50.1659 74.5 50.5459 74.4 50.9526 74.4ZM59.9232 77.11C59.9232 77.3167 59.9099 77.5033 59.8832 77.67H55.6732C55.7066 78.11 55.8699 78.4633 56.1632 78.73C56.4566 78.9967 56.8166 79.13 57.2432 79.13C57.8566 79.13 58.2899 78.8733 58.5432 78.36H59.7732C59.6066 78.8667 59.3032 79.2833 58.8632 79.61C58.4299 79.93 57.8899 80.09 57.2432 80.09C56.7166 80.09 56.2432 79.9733 55.8232 79.74C55.4099 79.5 55.0832 79.1667 54.8432 78.74C54.6099 78.3067 54.4932 77.8067 54.4932 77.24C54.4932 76.6733 54.6066 76.1767 54.8332 75.75C55.0666 75.3167 55.3899 74.9833 55.8032 74.75C56.2232 74.5167 56.7032 74.4 57.2432 74.4C57.7632 74.4 58.2266 74.5133 58.6332 74.74C59.0399 74.9667 59.3566 75.2867 59.5832 75.7C59.8099 76.1067 59.9232 76.5767 59.9232 77.11ZM58.7332 76.75C58.7266 76.33 58.5766 75.9933 58.2832 75.74C57.9899 75.4867 57.6266 75.36 57.1932 75.36C56.7999 75.36 56.4632 75.4867 56.1832 75.74C55.9032 75.9867 55.7366 76.3233 55.6832 76.75H58.7332Z" fill="#646464"/>
<path d="M125.167 59.1667L128.5 62.5001" stroke="#646464" stroke-width="1.25" stroke-linecap="round" stroke-linejoin="round"/>
<path d="M126.833 54.1667C126.833 50.4848 123.849 47.5 120.167 47.5C116.485 47.5 113.5 50.4848 113.5 54.1667C113.5 57.8486 116.485 60.8333 120.167 60.8333C123.849 60.8333 126.833 57.8486 126.833 54.1667Z" stroke="#646464" stroke-width="1.25" stroke-linecap="round" stroke-linejoin="round"/>
<path d="M105.884 80.07C105.417 80.07 104.997 79.99 104.624 79.83C104.25 79.6633 103.957 79.43 103.744 79.13C103.53 78.83 103.424 78.48 103.424 78.08H104.644C104.67 78.38 104.787 78.6267 104.994 78.82C105.207 79.0133 105.504 79.11 105.884 79.11C106.277 79.11 106.584 79.0167 106.804 78.83C107.024 78.6367 107.134 78.39 107.134 78.09C107.134 77.8567 107.064 77.6667 106.924 77.52C106.79 77.3733 106.62 77.26 106.414 77.18C106.214 77.1 105.934 77.0133 105.574 76.92C105.12 76.8 104.75 76.68 104.464 76.56C104.184 76.4333 103.944 76.24 103.744 75.98C103.544 75.72 103.444 75.3733 103.444 74.94C103.444 74.54 103.544 74.19 103.744 73.89C103.944 73.59 104.224 73.36 104.584 73.2C104.944 73.04 105.36 72.96 105.834 72.96C106.507 72.96 107.057 73.13 107.484 73.47C107.917 73.8033 108.157 74.2633 108.204 74.85H106.944C106.924 74.5967 106.804 74.38 106.584 74.2C106.364 74.02 106.074 73.93 105.714 73.93C105.387 73.93 105.12 74.0133 104.914 74.18C104.707 74.3467 104.604 74.5867 104.604 74.9C104.604 75.1133 104.667 75.29 104.794 75.43C104.927 75.5633 105.094 75.67 105.294 75.75C105.494 75.83 105.767 75.9167 106.114 76.01C106.574 76.1367 106.947 76.2633 107.234 76.39C107.527 76.5167 107.774 76.7133 107.974 76.98C108.18 77.24 108.284 77.59 108.284 78.03C108.284 78.3833 108.187 78.7167 107.994 79.03C107.807 79.3433 107.53 79.5967 107.164 79.79C106.804 79.9767 106.377 80.07 105.884 80.07ZM114.879 77.11C114.879 77.3167 114.866 77.5033 114.839 77.67H110.629C110.662 78.11 110.826 78.4633 111.119 78.73C111.412 78.9967 111.772 79.13 112.199 79.13C112.812 79.13 113.246 78.8733 113.499 78.36H114.729C114.562 78.8667 114.259 79.2833 113.819 79.61C113.386 79.93 112.846 80.09 112.199 80.09C111.672 80.09 111.199 79.9733 110.779 79.74C110.366 79.5 110.039 79.1667 109.799 78.74C109.566 78.3067 109.449 77.8067 109.449 77.24C109.449 76.6733 109.562 76.1767 109.789 75.75C110.022 75.3167 110.346 74.9833 110.759 74.75C111.179 74.5167 111.659 74.4 112.199 74.4C112.719 74.4 113.182 74.5133 113.589 74.74C113.996 74.9667 114.312 75.2867 114.539 75.7C114.766 76.1067 114.879 76.5767 114.879 77.11ZM113.689 76.75C113.682 76.33 113.532 75.9933 113.239 75.74C112.946 75.4867 112.582 75.36 112.149 75.36C111.756 75.36 111.419 75.4867 111.139 75.74C110.859 75.9867 110.692 76.3233 110.639 76.75H113.689ZM115.821 77.22C115.821 76.6667 115.934 76.1767 116.161 75.75C116.394 75.3233 116.707 74.9933 117.101 74.76C117.501 74.52 117.941 74.4 118.421 74.4C118.854 74.4 119.231 74.4867 119.551 74.66C119.877 74.8267 120.137 75.0367 120.331 75.29V74.49H121.481V80H120.331V79.18C120.137 79.44 119.874 79.6567 119.541 79.83C119.207 80.0033 118.827 80.09 118.401 80.09C117.927 80.09 117.494 79.97 117.101 79.73C116.707 79.4833 116.394 79.1433 116.161 78.71C115.934 78.27 115.821 77.7733 115.821 77.22ZM120.331 77.24C120.331 76.86 120.251 76.53 120.091 76.25C119.937 75.97 119.734 75.7567 119.481 75.61C119.227 75.4633 118.954 75.39 118.661 75.39C118.367 75.39 118.094 75.4633 117.841 75.61C117.587 75.75 117.381 75.96 117.221 76.24C117.067 76.5133 116.991 76.84 116.991 77.22C116.991 77.6 117.067 77.9333 117.221 78.22C117.381 78.5067 117.587 78.7267 117.841 78.88C118.101 79.0267 118.374 79.1 118.661 79.1C118.954 79.1 119.227 79.0267 119.481 78.88C119.734 78.7333 119.937 78.52 120.091 78.24C120.251 77.9533 120.331 77.62 120.331 77.24ZM124.318 75.29C124.485 75.01 124.705 74.7933 124.978 74.64C125.258 74.48 125.588 74.4 125.968 74.4V75.58H125.678C125.231 75.58 124.891 75.6933 124.658 75.92C124.431 76.1467 124.318 76.54 124.318 77.1V80H123.178V74.49H124.318V75.29ZM126.836 77.24C126.836 76.6733 126.949 76.1767 127.176 75.75C127.409 75.3167 127.729 74.9833 128.136 74.75C128.543 74.5167 129.009 74.4 129.536 74.4C130.203 74.4 130.753 74.56 131.186 74.88C131.626 75.1933 131.923 75.6433 132.076 76.23H130.846C130.746 75.9567 130.586 75.7433 130.366 75.59C130.146 75.4367 129.869 75.36 129.536 75.36C129.069 75.36 128.696 75.5267 128.416 75.86C128.143 76.1867 128.006 76.6467 128.006 77.24C128.006 77.8333 128.143 78.2967 128.416 78.63C128.696 78.9633 129.069 79.13 129.536 79.13C130.196 79.13 130.633 78.84 130.846 78.26H132.076C131.916 78.82 131.616 79.2667 131.176 79.6C130.736 79.9267 130.189 80.09 129.536 80.09C129.009 80.09 128.543 79.9733 128.136 79.74C127.729 79.5 127.409 79.1667 127.176 78.74C126.949 78.3067 126.836 77.8067 126.836 77.24ZM136.262 74.4C136.682 74.4 137.055 74.49 137.382 74.67C137.715 74.85 137.975 75.1167 138.162 75.47C138.355 75.8233 138.452 76.25 138.452 76.75V80H137.322V76.92C137.322 76.4267 137.199 76.05 136.952 75.79C136.705 75.5233 136.369 75.39 135.942 75.39C135.515 75.39 135.175 75.5233 134.922 75.79C134.675 76.05 134.552 76.4267 134.552 76.92V80H133.412V72.6H134.552V75.13C134.745 74.8967 134.989 74.7167 135.282 74.59C135.582 74.4633 135.909 74.4 136.262 74.4Z" fill="#646464"/>
<path d="M195 24.9999L194.484 26.394C193.808 28.2219 193.47 29.1359 192.803 29.8027C192.136 30.4694 191.222 30.8076 189.394 31.4841L188 31.9999L189.394 32.5157C191.222 33.1922 192.136 33.5304 192.803 34.1971C193.47 34.8639 193.808 35.7779 194.484 37.6058L195 38.9999L195.516 37.6058C196.192 35.7779 196.53 34.8639 197.197 34.1971C197.864 33.5304 198.778 33.1922 200.606 32.5157L202 31.9999L200.606 31.4841C198.778 30.8076 197.864 30.4694 197.197 29.8027C196.53 29.1359 196.192 28.2219 195.516 26.394L195 24.9999Z" fill="#353535" stroke="#EDEDED" stroke-width="1.5" stroke-linejoin="round"/>
<path d="M203 21L202.779 21.5975C202.489 22.3809 202.344 22.7726 202.058 23.0583C201.773 23.3441 201.381 23.489 200.597 23.7789L200 24L200.597 24.2211C201.381 24.511 201.773 24.6559 202.058 24.9417C202.344 25.2274 202.489 25.6191 202.779 26.4025L203 27L203.221 26.4025C203.511 25.6191 203.656 25.2274 203.942 24.9417C204.227 24.6559 204.619 24.511 205.403 24.2211L206 24L205.403 23.7789C204.619 23.489 204.227 23.3441 203.942 23.0583C203.656 22.7726 203.511 22.3809 203.221 21.5975L203 21Z" fill="#353535" stroke="#EDEDED" stroke-width="1.5" stroke-linejoin="round"/>
<path d="M177.299 73.02V80H175.899V73.02H177.299ZM185.762 74.38C186.442 74.38 186.988 74.59 187.402 75.01C187.822 75.4233 188.032 76.0033 188.032 76.75V80H186.632V76.94C186.632 76.5067 186.522 76.1767 186.302 75.95C186.082 75.7167 185.782 75.6 185.402 75.6C185.022 75.6 184.718 75.7167 184.492 75.95C184.272 76.1767 184.162 76.5067 184.162 76.94V80H182.762V76.94C182.762 76.5067 182.652 76.1767 182.432 75.95C182.212 75.7167 181.912 75.6 181.532 75.6C181.145 75.6 180.838 75.7167 180.612 75.95C180.392 76.1767 180.282 76.5067 180.282 76.94V80H178.882V74.46H180.282V75.13C180.462 74.8967 180.692 74.7133 180.972 74.58C181.258 74.4467 181.572 74.38 181.912 74.38C182.345 74.38 182.732 74.4733 183.072 74.66C183.412 74.84 183.675 75.1 183.862 75.44C184.042 75.12 184.302 74.8633 184.642 74.67C184.988 74.4767 185.362 74.38 185.762 74.38ZM189.2 77.21C189.2 76.65 189.31 76.1533 189.53 75.72C189.757 75.2867 190.06 74.9533 190.44 74.72C190.827 74.4867 191.257 74.37 191.73 74.37C192.144 74.37 192.504 74.4533 192.81 74.62C193.124 74.7867 193.374 74.9967 193.56 75.25V74.46H194.97V80H193.56V79.19C193.38 79.45 193.13 79.6667 192.81 79.84C192.497 80.0067 192.134 80.09 191.72 80.09C191.254 80.09 190.827 79.97 190.44 79.73C190.06 79.49 189.757 79.1533 189.53 78.72C189.31 78.28 189.2 77.7767 189.2 77.21ZM193.56 77.23C193.56 76.89 193.494 76.6 193.36 76.36C193.227 76.1133 193.047 75.9267 192.82 75.8C192.594 75.6667 192.35 75.6 192.09 75.6C191.83 75.6 191.59 75.6633 191.37 75.79C191.15 75.9167 190.97 76.1033 190.83 76.35C190.697 76.59 190.63 76.8767 190.63 77.21C190.63 77.5433 190.697 77.8367 190.83 78.09C190.97 78.3367 191.15 78.5267 191.37 78.66C191.597 78.7933 191.837 78.86 192.09 78.86C192.35 78.86 192.594 78.7967 192.82 78.67C193.047 78.5367 193.227 78.35 193.36 78.11C193.494 77.8633 193.56 77.57 193.56 77.23ZM198.708 74.37C199.121 74.37 199.484 74.4533 199.798 74.62C200.111 74.78 200.358 74.99 200.538 75.25V74.46H201.948V80.04C201.948 80.5533 201.844 81.01 201.638 81.41C201.431 81.8167 201.121 82.1367 200.708 82.37C200.294 82.61 199.794 82.73 199.208 82.73C198.421 82.73 197.774 82.5467 197.268 82.18C196.768 81.8133 196.484 81.3133 196.418 80.68H197.808C197.881 80.9333 198.038 81.1333 198.278 81.28C198.524 81.4333 198.821 81.51 199.168 81.51C199.574 81.51 199.904 81.3867 200.158 81.14C200.411 80.9 200.538 80.5333 200.538 80.04V79.18C200.358 79.44 200.108 79.6567 199.788 79.83C199.474 80.0033 199.114 80.09 198.708 80.09C198.241 80.09 197.814 79.97 197.428 79.73C197.041 79.49 196.734 79.1533 196.508 78.72C196.288 78.28 196.178 77.7767 196.178 77.21C196.178 76.65 196.288 76.1533 196.508 75.72C196.734 75.2867 197.038 74.9533 197.418 74.72C197.804 74.4867 198.234 74.37 198.708 74.37ZM200.538 77.23C200.538 76.89 200.471 76.6 200.338 76.36C200.204 76.1133 200.024 75.9267 199.798 75.8C199.571 75.6667 199.328 75.6 199.068 75.6C198.808 75.6 198.568 75.6633 198.348 75.79C198.128 75.9167 197.948 76.1033 197.808 76.35C197.674 76.59 197.608 76.8767 197.608 77.21C197.608 77.5433 197.674 77.8367 197.808 78.09C197.948 78.3367 198.128 78.5267 198.348 78.66C198.574 78.7933 198.814 78.86 199.068 78.86C199.328 78.86 199.571 78.7967 199.798 78.67C200.024 78.5367 200.204 78.35 200.338 78.11C200.471 77.8633 200.538 77.57 200.538 77.23ZM204.225 73.8C203.978 73.8 203.772 73.7233 203.605 73.57C203.445 73.41 203.365 73.2133 203.365 72.98C203.365 72.7467 203.445 72.5533 203.605 72.4C203.772 72.24 203.978 72.16 204.225 72.16C204.472 72.16 204.675 72.24 204.835 72.4C205.002 72.5533 205.085 72.7467 205.085 72.98C205.085 73.2133 205.002 73.41 204.835 73.57C204.675 73.7233 204.472 73.8 204.225 73.8ZM204.915 74.46V80H203.515V74.46H204.915ZM209.568 74.38C210.228 74.38 210.762 74.59 211.168 75.01C211.575 75.4233 211.778 76.0033 211.778 76.75V80H210.378V76.94C210.378 76.5 210.268 76.1633 210.048 75.93C209.828 75.69 209.528 75.57 209.148 75.57C208.762 75.57 208.455 75.69 208.228 75.93C208.008 76.1633 207.898 76.5 207.898 76.94V80H206.498V74.46H207.898V75.15C208.085 74.91 208.322 74.7233 208.608 74.59C208.902 74.45 209.222 74.38 209.568 74.38ZM218.46 77.11C218.46 77.31 218.446 77.49 218.42 77.65H214.37C214.403 78.05 214.543 78.3633 214.79 78.59C215.036 78.8167 215.34 78.93 215.7 78.93C216.22 78.93 216.59 78.7067 216.81 78.26H218.32C218.16 78.7933 217.853 79.2333 217.4 79.58C216.946 79.92 216.39 80.09 215.73 80.09C215.196 80.09 214.716 79.9733 214.29 79.74C213.87 79.5 213.54 79.1633 213.3 78.73C213.066 78.2967 212.95 77.7967 212.95 77.23C212.95 76.6567 213.066 76.1533 213.3 75.72C213.533 75.2867 213.86 74.9533 214.28 74.72C214.7 74.4867 215.183 74.37 215.73 74.37C216.256 74.37 216.726 74.4833 217.14 74.71C217.56 74.9367 217.883 75.26 218.11 75.68C218.343 76.0933 218.46 76.57 218.46 77.11ZM217.01 76.71C217.003 76.35 216.873 76.0633 216.62 75.85C216.366 75.63 216.056 75.52 215.69 75.52C215.343 75.52 215.05 75.6267 214.81 75.84C214.576 76.0467 214.433 76.3367 214.38 76.71H217.01Z" fill="#EDEDED"/>
<path d="M280.54 47.5441C278.725 45.5894 265.072 50.3776 265.083 52.1258C265.096 54.1082 270.415 54.718 271.889 55.1317C272.776 55.3804 273.013 55.6354 273.218 56.565C274.143 60.7754 274.608 62.8695 275.668 62.9163C277.356 62.9909 282.311 49.4516 280.54 47.5441Z" stroke="#646464" stroke-width="1.25"/>
<path d="M272.583 55.4167L275.5 52.5" stroke="#646464" stroke-width="1.25" stroke-linecap="round" stroke-linejoin="round"/>
<path d="M257.77 73.05V80H256.63V75.24L254.51 80H253.72L251.59 75.24V80H250.45V73.05H251.68L254.12 78.5L256.55 73.05H257.77ZM264.518 77.11C264.518 77.3167 264.505 77.5033 264.478 77.67H260.268C260.301 78.11 260.465 78.4633 260.758 78.73C261.051 78.9967 261.411 79.13 261.838 79.13C262.451 79.13 262.885 78.8733 263.138 78.36H264.368C264.201 78.8667 263.898 79.2833 263.458 79.61C263.025 79.93 262.485 80.09 261.838 80.09C261.311 80.09 260.838 79.9733 260.418 79.74C260.005 79.5 259.678 79.1667 259.438 78.74C259.205 78.3067 259.088 77.8067 259.088 77.24C259.088 76.6733 259.201 76.1767 259.428 75.75C259.661 75.3167 259.985 74.9833 260.398 74.75C260.818 74.5167 261.298 74.4 261.838 74.4C262.358 74.4 262.821 74.5133 263.228 74.74C263.635 74.9667 263.951 75.2867 264.178 75.7C264.405 76.1067 264.518 76.5767 264.518 77.11ZM263.328 76.75C263.321 76.33 263.171 75.9933 262.878 75.74C262.585 75.4867 262.221 75.36 261.788 75.36C261.395 75.36 261.058 75.4867 260.778 75.74C260.498 75.9867 260.331 76.3233 260.278 76.75H263.328ZM267.84 80.09C267.407 80.09 267.017 80.0133 266.67 79.86C266.33 79.7 266.06 79.4867 265.86 79.22C265.66 78.9467 265.553 78.6433 265.54 78.31H266.72C266.74 78.5433 266.85 78.74 267.05 78.9C267.257 79.0533 267.513 79.13 267.82 79.13C268.14 79.13 268.387 79.07 268.56 78.95C268.74 78.8233 268.83 78.6633 268.83 78.47C268.83 78.2633 268.73 78.11 268.53 78.01C268.337 77.91 268.027 77.8 267.6 77.68C267.187 77.5667 266.85 77.4567 266.59 77.35C266.33 77.2433 266.103 77.08 265.91 76.86C265.723 76.64 265.63 76.35 265.63 75.99C265.63 75.6967 265.717 75.43 265.89 75.19C266.063 74.9433 266.31 74.75 266.63 74.61C266.957 74.47 267.33 74.4 267.75 74.4C268.377 74.4 268.88 74.56 269.26 74.88C269.647 75.1933 269.853 75.6233 269.88 76.17H268.74C268.72 75.9233 268.62 75.7267 268.44 75.58C268.26 75.4333 268.017 75.36 267.71 75.36C267.41 75.36 267.18 75.4167 267.02 75.53C266.86 75.6433 266.78 75.7933 266.78 75.98C266.78 76.1267 266.833 76.25 266.94 76.35C267.047 76.45 267.177 76.53 267.33 76.59C267.483 76.6433 267.71 76.7133 268.01 76.8C268.41 76.9067 268.737 77.0167 268.99 77.13C269.25 77.2367 269.473 77.3967 269.66 77.61C269.847 77.8233 269.943 78.1067 269.95 78.46C269.95 78.7733 269.863 79.0533 269.69 79.3C269.517 79.5467 269.27 79.74 268.95 79.88C268.637 80.02 268.267 80.09 267.84 80.09ZM273.382 80.09C272.949 80.09 272.559 80.0133 272.212 79.86C271.872 79.7 271.602 79.4867 271.402 79.22C271.202 78.9467 271.095 78.6433 271.082 78.31H272.262C272.282 78.5433 272.392 78.74 272.592 78.9C272.799 79.0533 273.055 79.13 273.362 79.13C273.682 79.13 273.929 79.07 274.102 78.95C274.282 78.8233 274.372 78.6633 274.372 78.47C274.372 78.2633 274.272 78.11 274.072 78.01C273.879 77.91 273.569 77.8 273.142 77.68C272.729 77.5667 272.392 77.4567 272.132 77.35C271.872 77.2433 271.645 77.08 271.452 76.86C271.265 76.64 271.172 76.35 271.172 75.99C271.172 75.6967 271.259 75.43 271.432 75.19C271.605 74.9433 271.852 74.75 272.172 74.61C272.499 74.47 272.872 74.4 273.292 74.4C273.919 74.4 274.422 74.56 274.802 74.88C275.189 75.1933 275.395 75.6233 275.422 76.17H274.282C274.262 75.9233 274.162 75.7267 273.982 75.58C273.802 75.4333 273.559 75.36 273.252 75.36C272.952 75.36 272.722 75.4167 272.562 75.53C272.402 75.6433 272.322 75.7933 272.322 75.98C272.322 76.1267 272.375 76.25 272.482 76.35C272.589 76.45 272.719 76.53 272.872 76.59C273.025 76.6433 273.252 76.7133 273.552 76.8C273.952 76.9067 274.279 77.0167 274.532 77.13C274.792 77.2367 275.015 77.3967 275.202 77.61C275.389 77.8233 275.485 78.1067 275.492 78.46C275.492 78.7733 275.405 79.0533 275.232 79.3C275.059 79.5467 274.812 79.74 274.492 79.88C274.179 80.02 273.809 80.09 273.382 80.09ZM276.544 77.22C276.544 76.6667 276.657 76.1767 276.884 75.75C277.117 75.3233 277.43 74.9933 277.824 74.76C278.224 74.52 278.664 74.4 279.144 74.4C279.577 74.4 279.954 74.4867 280.274 74.66C280.6 74.8267 280.86 75.0367 281.054 75.29V74.49H282.204V80H281.054V79.18C280.86 79.44 280.597 79.6567 280.264 79.83C279.93 80.0033 279.55 80.09 279.124 80.09C278.65 80.09 278.217 79.97 277.824 79.73C277.43 79.4833 277.117 79.1433 276.884 78.71C276.657 78.27 276.544 77.7733 276.544 77.22ZM281.054 77.24C281.054 76.86 280.974 76.53 280.814 76.25C280.66 75.97 280.457 75.7567 280.204 75.61C279.95 75.4633 279.677 75.39 279.384 75.39C279.09 75.39 278.817 75.4633 278.564 75.61C278.31 75.75 278.104 75.96 277.944 76.24C277.79 76.5133 277.714 76.84 277.714 77.22C277.714 77.6 277.79 77.9333 277.944 78.22C278.104 78.5067 278.31 78.7267 278.564 78.88C278.824 79.0267 279.097 79.1 279.384 79.1C279.677 79.1 279.95 79.0267 280.204 78.88C280.457 78.7333 280.66 78.52 280.814 78.24C280.974 77.9533 281.054 77.62 281.054 77.24ZM286.121 74.4C286.548 74.4 286.924 74.4867 287.251 74.66C287.584 74.8267 287.844 75.0367 288.031 75.29V74.49H289.181V80.09C289.181 80.5967 289.074 81.0467 288.861 81.44C288.648 81.84 288.338 82.1533 287.931 82.38C287.531 82.6067 287.051 82.72 286.491 82.72C285.744 82.72 285.124 82.5433 284.631 82.19C284.138 81.8433 283.858 81.37 283.791 80.77H284.921C285.008 81.0567 285.191 81.2867 285.471 81.46C285.758 81.64 286.098 81.73 286.491 81.73C286.951 81.73 287.321 81.59 287.601 81.31C287.888 81.03 288.031 80.6233 288.031 80.09V79.17C287.838 79.43 287.574 79.65 287.241 79.83C286.914 80.0033 286.541 80.09 286.121 80.09C285.641 80.09 285.201 79.97 284.801 79.73C284.408 79.4833 284.094 79.1433 283.861 78.71C283.634 78.27 283.521 77.7733 283.521 77.22C283.521 76.6667 283.634 76.1767 283.861 75.75C284.094 75.3233 284.408 74.9933 284.801 74.76C285.201 74.52 285.641 74.4 286.121 74.4ZM288.031 77.24C288.031 76.86 287.951 76.53 287.791 76.25C287.638 75.97 287.434 75.7567 287.181 75.61C286.928 75.4633 286.654 75.39 286.361 75.39C286.068 75.39 285.794 75.4633 285.541 75.61C285.288 75.75 285.081 75.96 284.921 76.24C284.768 76.5133 284.691 76.84 284.691 77.22C284.691 77.6 284.768 77.9333 284.921 78.22C285.081 78.5067 285.288 78.7267 285.541 78.88C285.801 79.0267 286.074 79.1 286.361 79.1C286.654 79.1 286.928 79.0267 287.181 78.88C287.434 78.7333 287.638 78.52 287.791 78.24C287.951 77.9533 288.031 77.62 288.031 77.24ZM295.928 77.11C295.928 77.3167 295.915 77.5033 295.888 77.67H291.678C291.712 78.11 291.875 78.4633 292.168 78.73C292.462 78.9967 292.822 79.13 293.248 79.13C293.862 79.13 294.295 78.8733 294.548 78.36H295.778C295.612 78.8667 295.308 79.2833 294.868 79.61C294.435 79.93 293.895 80.09 293.248 80.09C292.722 80.09 292.248 79.9733 291.828 79.74C291.415 79.5 291.088 79.1667 290.848 78.74C290.615 78.3067 290.498 77.8067 290.498 77.24C290.498 76.6733 290.612 76.1767 290.838 75.75C291.072 75.3167 291.395 74.9833 291.808 74.75C292.228 74.5167 292.708 74.4 293.248 74.4C293.768 74.4 294.232 74.5133 294.638 74.74C295.045 74.9667 295.362 75.2867 295.588 75.7C295.815 76.1067 295.928 76.5767 295.928 77.11ZM294.738 76.75C294.732 76.33 294.582 75.9933 294.288 75.74C293.995 75.4867 293.632 75.36 293.198 75.36C292.805 75.36 292.468 75.4867 292.188 75.74C291.908 75.9867 291.742 76.3233 291.688 76.75H294.738Z" fill="#646464"/>
<path d="M352.333 50.8333C352.333 52.6743 350.841 54.1667 349 54.1667C347.159 54.1667 345.667 52.6743 345.667 50.8333C345.667 48.9924 347.159 47.5 349 47.5C350.841 47.5 352.333 48.9924 352.333 50.8333Z" stroke="#646464" stroke-width="1.25"/>
<path d="M350.667 56.6667H347.333C345.032 56.6667 343.167 58.5322 343.167 60.8334C343.167 61.7539 343.913 62.5001 344.833 62.5001H353.167C354.087 62.5001 354.833 61.7539 354.833 60.8334C354.833 58.5322 352.968 56.6667 350.667 56.6667Z" stroke="#646464" stroke-width="1.25" stroke-linejoin="round"/>
<path d="M338.546 75.12C338.546 75.4733 338.463 75.8067 338.296 76.12C338.129 76.4333 337.863 76.69 337.496 76.89C337.129 77.0833 336.659 77.18 336.086 77.18H334.826V80H333.686V73.05H336.086C336.619 73.05 337.069 73.1433 337.436 73.33C337.809 73.51 338.086 73.7567 338.266 74.07C338.453 74.3833 338.546 74.7333 338.546 75.12ZM336.086 76.25C336.519 76.25 336.843 76.1533 337.056 75.96C337.269 75.76 337.376 75.48 337.376 75.12C337.376 74.36 336.946 73.98 336.086 73.98H334.826V76.25H336.086ZM340.973 75.29C341.14 75.01 341.36 74.7933 341.633 74.64C341.913 74.48 342.243 74.4 342.623 74.4V75.58H342.333C341.887 75.58 341.547 75.6933 341.313 75.92C341.087 76.1467 340.973 76.54 340.973 77.1V80H339.833V74.49H340.973V75.29ZM346.261 80.09C345.741 80.09 345.271 79.9733 344.851 79.74C344.431 79.5 344.101 79.1667 343.861 78.74C343.621 78.3067 343.501 77.8067 343.501 77.24C343.501 76.68 343.625 76.1833 343.871 75.75C344.118 75.3167 344.455 74.9833 344.881 74.75C345.308 74.5167 345.785 74.4 346.311 74.4C346.838 74.4 347.315 74.5167 347.741 74.75C348.168 74.9833 348.505 75.3167 348.751 75.75C348.998 76.1833 349.121 76.68 349.121 77.24C349.121 77.8 348.995 78.2967 348.741 78.73C348.488 79.1633 348.141 79.5 347.701 79.74C347.268 79.9733 346.788 80.09 346.261 80.09ZM346.261 79.1C346.555 79.1 346.828 79.03 347.081 78.89C347.341 78.75 347.551 78.54 347.711 78.26C347.871 77.98 347.951 77.64 347.951 77.24C347.951 76.84 347.875 76.5033 347.721 76.23C347.568 75.95 347.365 75.74 347.111 75.6C346.858 75.46 346.585 75.39 346.291 75.39C345.998 75.39 345.725 75.46 345.471 75.6C345.225 75.74 345.028 75.95 344.881 76.23C344.735 76.5033 344.661 76.84 344.661 77.24C344.661 77.8333 344.811 78.2933 345.111 78.62C345.418 78.94 345.801 79.1 346.261 79.1ZM352.758 75.42H351.738V80H350.588V75.42H349.938V74.49H350.588V74.1C350.588 73.4667 350.755 73.0067 351.088 72.72C351.428 72.4267 351.958 72.28 352.678 72.28V73.23C352.332 73.23 352.088 73.2967 351.948 73.43C351.808 73.5567 351.738 73.78 351.738 74.1V74.49H352.758V75.42ZM354.549 73.76C354.342 73.76 354.169 73.69 354.029 73.55C353.889 73.41 353.819 73.2367 353.819 73.03C353.819 72.8233 353.889 72.65 354.029 72.51C354.169 72.37 354.342 72.3 354.549 72.3C354.749 72.3 354.919 72.37 355.059 72.51C355.199 72.65 355.269 72.8233 355.269 73.03C355.269 73.2367 355.199 73.41 355.059 73.55C354.919 73.69 354.749 73.76 354.549 73.76ZM355.109 74.49V80H353.969V74.49H355.109ZM357.945 72.6V80H356.805V72.6H357.945ZM364.692 77.11C364.692 77.3167 364.679 77.5033 364.652 77.67H360.442C360.475 78.11 360.639 78.4633 360.932 78.73C361.225 78.9967 361.585 79.13 362.012 79.13C362.625 79.13 363.059 78.8733 363.312 78.36H364.542C364.375 78.8667 364.072 79.2833 363.632 79.61C363.199 79.93 362.659 80.09 362.012 80.09C361.485 80.09 361.012 79.9733 360.592 79.74C360.179 79.5 359.852 79.1667 359.612 78.74C359.379 78.3067 359.262 77.8067 359.262 77.24C359.262 76.6733 359.375 76.1767 359.602 75.75C359.835 75.3167 360.159 74.9833 360.572 74.75C360.992 74.5167 361.472 74.4 362.012 74.4C362.532 74.4 362.995 74.5133 363.402 74.74C363.809 74.9667 364.125 75.2867 364.352 75.7C364.579 76.1067 364.692 76.5767 364.692 77.11ZM363.502 76.75C363.495 76.33 363.345 75.9933 363.052 75.74C362.759 75.4867 362.395 75.36 361.962 75.36C361.569 75.36 361.232 75.4867 360.952 75.74C360.672 75.9867 360.505 76.3233 360.452 76.75H363.502Z" fill="#646464"/>
</svg>
