<svg width="393" height="98" viewBox="0 0 393 98" fill="none" xmlns="http://www.w3.org/2000/svg">
<rect x="248" y="5" width="50" height="50" rx="25" fill="#111111"/>
<path d="M393 82C393 90.8366 385.837 98 377 98H16C7.16345 98 0 90.8366 0 82V46C0 37.1634 7.16344 30 16 30H227C235.837 30 242.662 37.6486 247.162 45.2538C252.384 54.0807 262.001 60 273 60C283.999 60 293.616 54.0807 298.838 45.2538C303.338 37.6486 310.163 30 319 30H377C385.837 30 393 37.1634 393 46V82Z" fill="#111111"/>
<path d="M37.5 54.9913V57.0833C37.5 59.8331 37.5 61.2081 38.3543 62.0624C39.2085 62.9166 40.5835 62.9166 43.3333 62.9166H46.6667C49.4165 62.9166 50.7914 62.9166 51.6457 62.0624C52.5 61.2081 52.5 59.8331 52.5 57.0833V54.9913C52.5 53.5902 52.5 52.8898 52.2034 52.2834C51.9068 51.677 51.3539 51.2469 50.248 50.3867L48.5813 49.0904C46.8609 47.7524 46.0007 47.0833 45 47.0833C43.9992 47.0833 43.1391 47.7524 41.4187 49.0904L39.752 50.3867C38.6461 51.2469 38.0932 51.677 37.7966 52.2834C37.5 52.8898 37.5 53.5902 37.5 54.9913Z" stroke="#646464" stroke-width="1.25" stroke-linecap="round" stroke-linejoin="round"/>
<path d="M47.5 59.1667C46.8338 59.6854 45.9585 60 45 60C44.0414 60 43.1663 59.6854 42.5 59.1667" stroke="#646464" stroke-width="1.25" stroke-linecap="round" stroke-linejoin="round"/>
<path d="M36.0049 73.05V80H34.8649V76.96H31.5949V80H30.4549V73.05H31.5949V76.03H34.8649V73.05H36.0049ZM40.0957 80.09C39.5757 80.09 39.1057 79.9733 38.6857 79.74C38.2657 79.5 37.9357 79.1667 37.6957 78.74C37.4557 78.3067 37.3357 77.8067 37.3357 77.24C37.3357 76.68 37.459 76.1833 37.7057 75.75C37.9523 75.3167 38.289 74.9833 38.7157 74.75C39.1423 74.5167 39.619 74.4 40.1457 74.4C40.6723 74.4 41.149 74.5167 41.5757 74.75C42.0023 74.9833 42.339 75.3167 42.5857 75.75C42.8323 76.1833 42.9557 76.68 42.9557 77.24C42.9557 77.8 42.829 78.2967 42.5757 78.73C42.3223 79.1633 41.9757 79.5 41.5357 79.74C41.1023 79.9733 40.6223 80.09 40.0957 80.09ZM40.0957 79.1C40.389 79.1 40.6623 79.03 40.9157 78.89C41.1757 78.75 41.3857 78.54 41.5457 78.26C41.7057 77.98 41.7857 77.64 41.7857 77.24C41.7857 76.84 41.709 76.5033 41.5557 76.23C41.4023 75.95 41.199 75.74 40.9457 75.6C40.6923 75.46 40.419 75.39 40.1257 75.39C39.8323 75.39 39.559 75.46 39.3057 75.6C39.059 75.74 38.8623 75.95 38.7157 76.23C38.569 76.5033 38.4957 76.84 38.4957 77.24C38.4957 77.8333 38.6457 78.2933 38.9457 78.62C39.2523 78.94 39.6357 79.1 40.0957 79.1ZM50.9526 74.4C51.3859 74.4 51.7726 74.49 52.1126 74.67C52.4593 74.85 52.7293 75.1167 52.9226 75.47C53.1226 75.8233 53.2226 76.25 53.2226 76.75V80H52.0926V76.92C52.0926 76.4267 51.9693 76.05 51.7226 75.79C51.4759 75.5233 51.1393 75.39 50.7126 75.39C50.2859 75.39 49.9459 75.5233 49.6926 75.79C49.4459 76.05 49.3226 76.4267 49.3226 76.92V80H48.1926V76.92C48.1926 76.4267 48.0693 76.05 47.8226 75.79C47.5759 75.5233 47.2393 75.39 46.8126 75.39C46.3859 75.39 46.0459 75.5233 45.7926 75.79C45.5459 76.05 45.4226 76.4267 45.4226 76.92V80H44.2826V74.49H45.4226V75.12C45.6093 74.8933 45.8459 74.7167 46.1326 74.59C46.4193 74.4633 46.7259 74.4 47.0526 74.4C47.4926 74.4 47.8859 74.4933 48.2326 74.68C48.5793 74.8667 48.8459 75.1367 49.0326 75.49C49.1993 75.1567 49.4593 74.8933 49.8126 74.7C50.1659 74.5 50.5459 74.4 50.9526 74.4ZM59.9232 77.11C59.9232 77.3167 59.9099 77.5033 59.8832 77.67H55.6732C55.7066 78.11 55.8699 78.4633 56.1632 78.73C56.4566 78.9967 56.8166 79.13 57.2432 79.13C57.8566 79.13 58.2899 78.8733 58.5432 78.36H59.7732C59.6066 78.8667 59.3032 79.2833 58.8632 79.61C58.4299 79.93 57.8899 80.09 57.2432 80.09C56.7166 80.09 56.2432 79.9733 55.8232 79.74C55.4099 79.5 55.0832 79.1667 54.8432 78.74C54.6099 78.3067 54.4932 77.8067 54.4932 77.24C54.4932 76.6733 54.6066 76.1767 54.8332 75.75C55.0666 75.3167 55.3899 74.9833 55.8032 74.75C56.2232 74.5167 56.7032 74.4 57.2432 74.4C57.7632 74.4 58.2266 74.5133 58.6332 74.74C59.0399 74.9667 59.3566 75.2867 59.5832 75.7C59.8099 76.1067 59.9232 76.5767 59.9232 77.11ZM58.7332 76.75C58.7266 76.33 58.5766 75.9933 58.2832 75.74C57.9899 75.4867 57.6266 75.36 57.1932 75.36C56.7999 75.36 56.4632 75.4867 56.1832 75.74C55.9032 75.9867 55.7366 76.3233 55.6832 76.75H58.7332Z" fill="#646464"/>
<path d="M125.167 59.1667L128.5 62.5" stroke="#646464" stroke-width="1.25" stroke-linecap="round" stroke-linejoin="round"/>
<path d="M126.833 54.1667C126.833 50.4848 123.849 47.5 120.167 47.5C116.485 47.5 113.5 50.4848 113.5 54.1667C113.5 57.8486 116.485 60.8333 120.167 60.8333C123.849 60.8333 126.833 57.8486 126.833 54.1667Z" stroke="#646464" stroke-width="1.25" stroke-linecap="round" stroke-linejoin="round"/>
<path d="M105.884 80.07C105.417 80.07 104.997 79.99 104.624 79.83C104.25 79.6633 103.957 79.43 103.744 79.13C103.53 78.83 103.424 78.48 103.424 78.08H104.644C104.67 78.38 104.787 78.6267 104.994 78.82C105.207 79.0133 105.504 79.11 105.884 79.11C106.277 79.11 106.584 79.0167 106.804 78.83C107.024 78.6367 107.134 78.39 107.134 78.09C107.134 77.8567 107.064 77.6667 106.924 77.52C106.79 77.3733 106.62 77.26 106.414 77.18C106.214 77.1 105.934 77.0133 105.574 76.92C105.12 76.8 104.75 76.68 104.464 76.56C104.184 76.4333 103.944 76.24 103.744 75.98C103.544 75.72 103.444 75.3733 103.444 74.94C103.444 74.54 103.544 74.19 103.744 73.89C103.944 73.59 104.224 73.36 104.584 73.2C104.944 73.04 105.36 72.96 105.834 72.96C106.507 72.96 107.057 73.13 107.484 73.47C107.917 73.8033 108.157 74.2633 108.204 74.85H106.944C106.924 74.5967 106.804 74.38 106.584 74.2C106.364 74.02 106.074 73.93 105.714 73.93C105.387 73.93 105.12 74.0133 104.914 74.18C104.707 74.3467 104.604 74.5867 104.604 74.9C104.604 75.1133 104.667 75.29 104.794 75.43C104.927 75.5633 105.094 75.67 105.294 75.75C105.494 75.83 105.767 75.9167 106.114 76.01C106.574 76.1367 106.947 76.2633 107.234 76.39C107.527 76.5167 107.774 76.7133 107.974 76.98C108.18 77.24 108.284 77.59 108.284 78.03C108.284 78.3833 108.187 78.7167 107.994 79.03C107.807 79.3433 107.53 79.5967 107.164 79.79C106.804 79.9767 106.377 80.07 105.884 80.07ZM114.879 77.11C114.879 77.3167 114.866 77.5033 114.839 77.67H110.629C110.662 78.11 110.826 78.4633 111.119 78.73C111.412 78.9967 111.772 79.13 112.199 79.13C112.812 79.13 113.246 78.8733 113.499 78.36H114.729C114.562 78.8667 114.259 79.2833 113.819 79.61C113.386 79.93 112.846 80.09 112.199 80.09C111.672 80.09 111.199 79.9733 110.779 79.74C110.366 79.5 110.039 79.1667 109.799 78.74C109.566 78.3067 109.449 77.8067 109.449 77.24C109.449 76.6733 109.562 76.1767 109.789 75.75C110.022 75.3167 110.346 74.9833 110.759 74.75C111.179 74.5167 111.659 74.4 112.199 74.4C112.719 74.4 113.182 74.5133 113.589 74.74C113.996 74.9667 114.312 75.2867 114.539 75.7C114.766 76.1067 114.879 76.5767 114.879 77.11ZM113.689 76.75C113.682 76.33 113.532 75.9933 113.239 75.74C112.946 75.4867 112.582 75.36 112.149 75.36C111.756 75.36 111.419 75.4867 111.139 75.74C110.859 75.9867 110.692 76.3233 110.639 76.75H113.689ZM115.821 77.22C115.821 76.6667 115.934 76.1767 116.161 75.75C116.394 75.3233 116.707 74.9933 117.101 74.76C117.501 74.52 117.941 74.4 118.421 74.4C118.854 74.4 119.231 74.4867 119.551 74.66C119.877 74.8267 120.137 75.0367 120.331 75.29V74.49H121.481V80H120.331V79.18C120.137 79.44 119.874 79.6567 119.541 79.83C119.207 80.0033 118.827 80.09 118.401 80.09C117.927 80.09 117.494 79.97 117.101 79.73C116.707 79.4833 116.394 79.1433 116.161 78.71C115.934 78.27 115.821 77.7733 115.821 77.22ZM120.331 77.24C120.331 76.86 120.251 76.53 120.091 76.25C119.937 75.97 119.734 75.7567 119.481 75.61C119.227 75.4633 118.954 75.39 118.661 75.39C118.367 75.39 118.094 75.4633 117.841 75.61C117.587 75.75 117.381 75.96 117.221 76.24C117.067 76.5133 116.991 76.84 116.991 77.22C116.991 77.6 117.067 77.9333 117.221 78.22C117.381 78.5067 117.587 78.7267 117.841 78.88C118.101 79.0267 118.374 79.1 118.661 79.1C118.954 79.1 119.227 79.0267 119.481 78.88C119.734 78.7333 119.937 78.52 120.091 78.24C120.251 77.9533 120.331 77.62 120.331 77.24ZM124.318 75.29C124.485 75.01 124.705 74.7933 124.978 74.64C125.258 74.48 125.588 74.4 125.968 74.4V75.58H125.678C125.231 75.58 124.891 75.6933 124.658 75.92C124.431 76.1467 124.318 76.54 124.318 77.1V80H123.178V74.49H124.318V75.29ZM126.836 77.24C126.836 76.6733 126.949 76.1767 127.176 75.75C127.409 75.3167 127.729 74.9833 128.136 74.75C128.543 74.5167 129.009 74.4 129.536 74.4C130.203 74.4 130.753 74.56 131.186 74.88C131.626 75.1933 131.923 75.6433 132.076 76.23H130.846C130.746 75.9567 130.586 75.7433 130.366 75.59C130.146 75.4367 129.869 75.36 129.536 75.36C129.069 75.36 128.696 75.5267 128.416 75.86C128.143 76.1867 128.006 76.6467 128.006 77.24C128.006 77.8333 128.143 78.2967 128.416 78.63C128.696 78.9633 129.069 79.13 129.536 79.13C130.196 79.13 130.633 78.84 130.846 78.26H132.076C131.916 78.82 131.616 79.2667 131.176 79.6C130.736 79.9267 130.189 80.09 129.536 80.09C129.009 80.09 128.543 79.9733 128.136 79.74C127.729 79.5 127.409 79.1667 127.176 78.74C126.949 78.3067 126.836 77.8067 126.836 77.24ZM136.262 74.4C136.682 74.4 137.055 74.49 137.382 74.67C137.715 74.85 137.975 75.1167 138.162 75.47C138.355 75.8233 138.452 76.25 138.452 76.75V80H137.322V76.92C137.322 76.4267 137.199 76.05 136.952 75.79C136.705 75.5233 136.369 75.39 135.942 75.39C135.515 75.39 135.175 75.5233 134.922 75.79C134.675 76.05 134.552 76.4267 134.552 76.92V80H133.412V72.6H134.552V75.13C134.745 74.8967 134.989 74.7167 135.282 74.59C135.582 74.4633 135.909 74.4 136.262 74.4Z" fill="#646464"/>
<path d="M195.333 50.8333L194.903 51.995C194.34 53.5183 194.058 54.28 193.502 54.8356C192.947 55.3912 192.185 55.6731 190.662 56.2368L189.5 56.6666L190.662 57.0965C192.185 57.6602 192.947 57.9421 193.502 58.4976C194.058 59.0533 194.34 59.815 194.903 61.3382L195.333 62.5L195.763 61.3382C196.327 59.815 196.609 59.0533 197.164 58.4976C197.72 57.9421 198.482 57.6602 200.005 57.0965L201.167 56.6666L200.005 56.2368C198.482 55.6731 197.72 55.3912 197.164 54.8356C196.609 54.28 196.327 53.5183 195.763 51.995L195.333 50.8333Z" stroke="#646464" stroke-width="1.25" stroke-linejoin="round"/>
<path d="M202 47.5L201.816 47.9979C201.574 48.6507 201.453 48.9772 201.215 49.2153C200.977 49.4534 200.651 49.5742 199.998 49.8158L199.5 50L199.998 50.1842C200.651 50.4258 200.977 50.5466 201.215 50.7847C201.453 51.0228 201.574 51.3493 201.816 52.0021L202 52.5L202.184 52.0021C202.426 51.3493 202.547 51.0228 202.785 50.7847C203.023 50.5466 203.349 50.4258 204.002 50.1842L204.5 50L204.002 49.8158C203.349 49.5742 203.023 49.4534 202.785 49.2153C202.547 48.9772 202.426 48.6507 202.184 47.9979L202 47.5Z" stroke="#646464" stroke-width="1.25" stroke-linejoin="round"/>
<path d="M177.348 73.05V80H176.208V73.05H177.348ZM185.714 74.4C186.148 74.4 186.534 74.49 186.874 74.67C187.221 74.85 187.491 75.1167 187.684 75.47C187.884 75.8233 187.984 76.25 187.984 76.75V80H186.854V76.92C186.854 76.4267 186.731 76.05 186.484 75.79C186.238 75.5233 185.901 75.39 185.474 75.39C185.048 75.39 184.708 75.5233 184.454 75.79C184.208 76.05 184.084 76.4267 184.084 76.92V80H182.954V76.92C182.954 76.4267 182.831 76.05 182.584 75.79C182.338 75.5233 182.001 75.39 181.574 75.39C181.148 75.39 180.808 75.5233 180.554 75.79C180.308 76.05 180.184 76.4267 180.184 76.92V80H179.044V74.49H180.184V75.12C180.371 74.8933 180.608 74.7167 180.894 74.59C181.181 74.4633 181.488 74.4 181.814 74.4C182.254 74.4 182.648 74.4933 182.994 74.68C183.341 74.8667 183.608 75.1367 183.794 75.49C183.961 75.1567 184.221 74.8933 184.574 74.7C184.928 74.5 185.308 74.4 185.714 74.4ZM189.255 77.22C189.255 76.6667 189.368 76.1767 189.595 75.75C189.828 75.3233 190.142 74.9933 190.535 74.76C190.935 74.52 191.375 74.4 191.855 74.4C192.288 74.4 192.665 74.4867 192.985 74.66C193.312 74.8267 193.572 75.0367 193.765 75.29V74.49H194.915V80H193.765V79.18C193.572 79.44 193.308 79.6567 192.975 79.83C192.642 80.0033 192.262 80.09 191.835 80.09C191.362 80.09 190.928 79.97 190.535 79.73C190.142 79.4833 189.828 79.1433 189.595 78.71C189.368 78.27 189.255 77.7733 189.255 77.22ZM193.765 77.24C193.765 76.86 193.685 76.53 193.525 76.25C193.372 75.97 193.168 75.7567 192.915 75.61C192.662 75.4633 192.388 75.39 192.095 75.39C191.802 75.39 191.528 75.4633 191.275 75.61C191.022 75.75 190.815 75.96 190.655 76.24C190.502 76.5133 190.425 76.84 190.425 77.22C190.425 77.6 190.502 77.9333 190.655 78.22C190.815 78.5067 191.022 78.7267 191.275 78.88C191.535 79.0267 191.808 79.1 192.095 79.1C192.388 79.1 192.662 79.0267 192.915 78.88C193.168 78.7333 193.372 78.52 193.525 78.24C193.685 77.9533 193.765 77.62 193.765 77.24ZM198.832 74.4C199.259 74.4 199.636 74.4867 199.962 74.66C200.296 74.8267 200.556 75.0367 200.742 75.29V74.49H201.892V80.09C201.892 80.5967 201.786 81.0467 201.572 81.44C201.359 81.84 201.049 82.1533 200.642 82.38C200.242 82.6067 199.762 82.72 199.202 82.72C198.456 82.72 197.836 82.5433 197.342 82.19C196.849 81.8433 196.569 81.37 196.502 80.77H197.632C197.719 81.0567 197.902 81.2867 198.182 81.46C198.469 81.64 198.809 81.73 199.202 81.73C199.662 81.73 200.032 81.59 200.312 81.31C200.599 81.03 200.742 80.6233 200.742 80.09V79.17C200.549 79.43 200.286 79.65 199.952 79.83C199.626 80.0033 199.252 80.09 198.832 80.09C198.352 80.09 197.912 79.97 197.512 79.73C197.119 79.4833 196.806 79.1433 196.572 78.71C196.346 78.27 196.232 77.7733 196.232 77.22C196.232 76.6667 196.346 76.1767 196.572 75.75C196.806 75.3233 197.119 74.9933 197.512 74.76C197.912 74.52 198.352 74.4 198.832 74.4ZM200.742 77.24C200.742 76.86 200.662 76.53 200.502 76.25C200.349 75.97 200.146 75.7567 199.892 75.61C199.639 75.4633 199.366 75.39 199.072 75.39C198.779 75.39 198.506 75.4633 198.252 75.61C197.999 75.75 197.792 75.96 197.632 76.24C197.479 76.5133 197.402 76.84 197.402 77.22C197.402 77.6 197.479 77.9333 197.632 78.22C197.792 78.5067 197.999 78.7267 198.252 78.88C198.512 79.0267 198.786 79.1 199.072 79.1C199.366 79.1 199.639 79.0267 199.892 78.88C200.146 78.7333 200.349 78.52 200.502 78.24C200.662 77.9533 200.742 77.62 200.742 77.24ZM204.17 73.76C203.963 73.76 203.79 73.69 203.65 73.55C203.51 73.41 203.44 73.2367 203.44 73.03C203.44 72.8233 203.51 72.65 203.65 72.51C203.79 72.37 203.963 72.3 204.17 72.3C204.37 72.3 204.54 72.37 204.68 72.51C204.82 72.65 204.89 72.8233 204.89 73.03C204.89 73.2367 204.82 73.41 204.68 73.55C204.54 73.69 204.37 73.76 204.17 73.76ZM204.73 74.49V80H203.59V74.49H204.73ZM209.206 74.4C209.64 74.4 210.026 74.49 210.366 74.67C210.713 74.85 210.983 75.1167 211.176 75.47C211.37 75.8233 211.466 76.25 211.466 76.75V80H210.336V76.92C210.336 76.4267 210.213 76.05 209.966 75.79C209.72 75.5233 209.383 75.39 208.956 75.39C208.53 75.39 208.19 75.5233 207.936 75.79C207.69 76.05 207.566 76.4267 207.566 76.92V80H206.426V74.49H207.566V75.12C207.753 74.8933 207.99 74.7167 208.276 74.59C208.57 74.4633 208.88 74.4 209.206 74.4ZM218.171 77.11C218.171 77.3167 218.157 77.5033 218.131 77.67H213.921C213.954 78.11 214.117 78.4633 214.411 78.73C214.704 78.9967 215.064 79.13 215.491 79.13C216.104 79.13 216.537 78.8733 216.791 78.36H218.021C217.854 78.8667 217.551 79.2833 217.111 79.61C216.677 79.93 216.137 80.09 215.491 80.09C214.964 80.09 214.491 79.9733 214.071 79.74C213.657 79.5 213.331 79.1667 213.091 78.74C212.857 78.3067 212.741 77.8067 212.741 77.24C212.741 76.6733 212.854 76.1767 213.081 75.75C213.314 75.3167 213.637 74.9833 214.051 74.75C214.471 74.5167 214.951 74.4 215.491 74.4C216.011 74.4 216.474 74.5133 216.881 74.74C217.287 74.9667 217.604 75.2867 217.831 75.7C218.057 76.1067 218.171 76.5767 218.171 77.11ZM216.981 76.75C216.974 76.33 216.824 75.9933 216.531 75.74C216.237 75.4867 215.874 75.36 215.441 75.36C215.047 75.36 214.711 75.4867 214.431 75.74C214.151 75.9867 213.984 76.3233 213.931 76.75H216.981Z" fill="#646464"/>
<path d="M282.047 21.0528C279.869 18.7072 263.486 24.4531 263.5 26.5509C263.515 28.9298 269.898 29.6616 271.667 30.158C272.731 30.4564 273.016 30.7624 273.261 31.878C274.372 36.9304 274.93 39.4434 276.201 39.4995C278.227 39.5891 284.173 23.3419 282.047 21.0528Z" fill="#353535" stroke="#EDEDED" stroke-width="1.5"/>
<path d="M272.5 30.5L276 27L272.5 30.5Z" fill="#353535"/>
<path d="M272.5 30.5L276 27" stroke="#EDEDED" stroke-width="1.5" stroke-linecap="round" stroke-linejoin="round"/>
<path d="M257.804 73.02V80H256.404V75.46L254.534 80H253.474L251.594 75.46V80H250.194V73.02H251.784L254.004 78.21L256.224 73.02H257.804ZM264.539 77.11C264.539 77.31 264.525 77.49 264.499 77.65H260.449C260.482 78.05 260.622 78.3633 260.869 78.59C261.115 78.8167 261.419 78.93 261.779 78.93C262.299 78.93 262.669 78.7067 262.889 78.26H264.399C264.239 78.7933 263.932 79.2333 263.479 79.58C263.025 79.92 262.469 80.09 261.809 80.09C261.275 80.09 260.795 79.9733 260.369 79.74C259.949 79.5 259.619 79.1633 259.379 78.73C259.145 78.2967 259.029 77.7967 259.029 77.23C259.029 76.6567 259.145 76.1533 259.379 75.72C259.612 75.2867 259.939 74.9533 260.359 74.72C260.779 74.4867 261.262 74.37 261.809 74.37C262.335 74.37 262.805 74.4833 263.219 74.71C263.639 74.9367 263.962 75.26 264.189 75.68C264.422 76.0933 264.539 76.57 264.539 77.11ZM263.089 76.71C263.082 76.35 262.952 76.0633 262.699 75.85C262.445 75.63 262.135 75.52 261.769 75.52C261.422 75.52 261.129 75.6267 260.889 75.84C260.655 76.0467 260.512 76.3367 260.459 76.71H263.089ZM267.881 80.09C267.427 80.09 267.021 80.01 266.661 79.85C266.301 79.6833 266.014 79.46 265.801 79.18C265.594 78.9 265.481 78.59 265.461 78.25H266.871C266.897 78.4633 267.001 78.64 267.181 78.78C267.367 78.92 267.597 78.99 267.871 78.99C268.137 78.99 268.344 78.9367 268.491 78.83C268.644 78.7233 268.721 78.5867 268.721 78.42C268.721 78.24 268.627 78.1067 268.441 78.02C268.261 77.9267 267.971 77.8267 267.571 77.72C267.157 77.62 266.817 77.5167 266.551 77.41C266.291 77.3033 266.064 77.14 265.871 76.92C265.684 76.7 265.591 76.4033 265.591 76.03C265.591 75.7233 265.677 75.4433 265.851 75.19C266.031 74.9367 266.284 74.7367 266.611 74.59C266.944 74.4433 267.334 74.37 267.781 74.37C268.441 74.37 268.967 74.5367 269.361 74.87C269.754 75.1967 269.971 75.64 270.011 76.2H268.671C268.651 75.98 268.557 75.8067 268.391 75.68C268.231 75.5467 268.014 75.48 267.741 75.48C267.487 75.48 267.291 75.5267 267.151 75.62C267.017 75.7133 266.951 75.8433 266.951 76.01C266.951 76.1967 267.044 76.34 267.231 76.44C267.417 76.5333 267.707 76.63 268.101 76.73C268.501 76.83 268.831 76.9333 269.091 77.04C269.351 77.1467 269.574 77.3133 269.761 77.54C269.954 77.76 270.054 78.0533 270.061 78.42C270.061 78.74 269.971 79.0267 269.791 79.28C269.617 79.5333 269.364 79.7333 269.031 79.88C268.704 80.02 268.321 80.09 267.881 80.09ZM273.53 80.09C273.076 80.09 272.67 80.01 272.31 79.85C271.95 79.6833 271.663 79.46 271.45 79.18C271.243 78.9 271.13 78.59 271.11 78.25H272.52C272.546 78.4633 272.65 78.64 272.83 78.78C273.016 78.92 273.246 78.99 273.52 78.99C273.786 78.99 273.993 78.9367 274.14 78.83C274.293 78.7233 274.37 78.5867 274.37 78.42C274.37 78.24 274.276 78.1067 274.09 78.02C273.91 77.9267 273.62 77.8267 273.22 77.72C272.806 77.62 272.466 77.5167 272.2 77.41C271.94 77.3033 271.713 77.14 271.52 76.92C271.333 76.7 271.24 76.4033 271.24 76.03C271.24 75.7233 271.326 75.4433 271.5 75.19C271.68 74.9367 271.933 74.7367 272.26 74.59C272.593 74.4433 272.983 74.37 273.43 74.37C274.09 74.37 274.616 74.5367 275.01 74.87C275.403 75.1967 275.62 75.64 275.66 76.2H274.32C274.3 75.98 274.206 75.8067 274.04 75.68C273.88 75.5467 273.663 75.48 273.39 75.48C273.136 75.48 272.94 75.5267 272.8 75.62C272.666 75.7133 272.6 75.8433 272.6 76.01C272.6 76.1967 272.693 76.34 272.88 76.44C273.066 76.5333 273.356 76.63 273.75 76.73C274.15 76.83 274.48 76.9333 274.74 77.04C275 77.1467 275.223 77.3133 275.41 77.54C275.603 77.76 275.703 78.0533 275.71 78.42C275.71 78.74 275.62 79.0267 275.44 79.28C275.266 79.5333 275.013 79.7333 274.68 79.88C274.353 80.02 273.97 80.09 273.53 80.09ZM276.699 77.21C276.699 76.65 276.809 76.1533 277.029 75.72C277.256 75.2867 277.559 74.9533 277.939 74.72C278.326 74.4867 278.756 74.37 279.229 74.37C279.642 74.37 280.002 74.4533 280.309 74.62C280.622 74.7867 280.872 74.9967 281.059 75.25V74.46H282.469V80H281.059V79.19C280.879 79.45 280.629 79.6667 280.309 79.84C279.996 80.0067 279.632 80.09 279.219 80.09C278.752 80.09 278.326 79.97 277.939 79.73C277.559 79.49 277.256 79.1533 277.029 78.72C276.809 78.28 276.699 77.7767 276.699 77.21ZM281.059 77.23C281.059 76.89 280.992 76.6 280.859 76.36C280.726 76.1133 280.546 75.9267 280.319 75.8C280.092 75.6667 279.849 75.6 279.589 75.6C279.329 75.6 279.089 75.6633 278.869 75.79C278.649 75.9167 278.469 76.1033 278.329 76.35C278.196 76.59 278.129 76.8767 278.129 77.21C278.129 77.5433 278.196 77.8367 278.329 78.09C278.469 78.3367 278.649 78.5267 278.869 78.66C279.096 78.7933 279.336 78.86 279.589 78.86C279.849 78.86 280.092 78.7967 280.319 78.67C280.546 78.5367 280.726 78.35 280.859 78.11C280.992 77.8633 281.059 77.57 281.059 77.23ZM286.206 74.37C286.62 74.37 286.983 74.4533 287.296 74.62C287.61 74.78 287.856 74.99 288.036 75.25V74.46H289.446V80.04C289.446 80.5533 289.343 81.01 289.136 81.41C288.93 81.8167 288.62 82.1367 288.206 82.37C287.793 82.61 287.293 82.73 286.706 82.73C285.92 82.73 285.273 82.5467 284.766 82.18C284.266 81.8133 283.983 81.3133 283.916 80.68H285.306C285.38 80.9333 285.536 81.1333 285.776 81.28C286.023 81.4333 286.32 81.51 286.666 81.51C287.073 81.51 287.403 81.3867 287.656 81.14C287.91 80.9 288.036 80.5333 288.036 80.04V79.18C287.856 79.44 287.606 79.6567 287.286 79.83C286.973 80.0033 286.613 80.09 286.206 80.09C285.74 80.09 285.313 79.97 284.926 79.73C284.54 79.49 284.233 79.1533 284.006 78.72C283.786 78.28 283.676 77.7767 283.676 77.21C283.676 76.65 283.786 76.1533 284.006 75.72C284.233 75.2867 284.536 74.9533 284.916 74.72C285.303 74.4867 285.733 74.37 286.206 74.37ZM288.036 77.23C288.036 76.89 287.97 76.6 287.836 76.36C287.703 76.1133 287.523 75.9267 287.296 75.8C287.07 75.6667 286.826 75.6 286.566 75.6C286.306 75.6 286.066 75.6633 285.846 75.79C285.626 75.9167 285.446 76.1033 285.306 76.35C285.173 76.59 285.106 76.8767 285.106 77.21C285.106 77.5433 285.173 77.8367 285.306 78.09C285.446 78.3367 285.626 78.5267 285.846 78.66C286.073 78.7933 286.313 78.86 286.566 78.86C286.826 78.86 287.07 78.7967 287.296 78.67C287.523 78.5367 287.703 78.35 287.836 78.11C287.97 77.8633 288.036 77.57 288.036 77.23ZM296.164 77.11C296.164 77.31 296.15 77.49 296.124 77.65H292.074C292.107 78.05 292.247 78.3633 292.494 78.59C292.74 78.8167 293.044 78.93 293.404 78.93C293.924 78.93 294.294 78.7067 294.514 78.26H296.024C295.864 78.7933 295.557 79.2333 295.104 79.58C294.65 79.92 294.094 80.09 293.434 80.09C292.9 80.09 292.42 79.9733 291.994 79.74C291.574 79.5 291.244 79.1633 291.004 78.73C290.77 78.2967 290.654 77.7967 290.654 77.23C290.654 76.6567 290.77 76.1533 291.004 75.72C291.237 75.2867 291.564 74.9533 291.984 74.72C292.404 74.4867 292.887 74.37 293.434 74.37C293.96 74.37 294.43 74.4833 294.844 74.71C295.264 74.9367 295.587 75.26 295.814 75.68C296.047 76.0933 296.164 76.57 296.164 77.11ZM294.714 76.71C294.707 76.35 294.577 76.0633 294.324 75.85C294.07 75.63 293.76 75.52 293.394 75.52C293.047 75.52 292.754 75.6267 292.514 75.84C292.28 76.0467 292.137 76.3367 292.084 76.71H294.714Z" fill="#EDEDED"/>
<path d="M352.333 50.8333C352.333 52.6743 350.841 54.1667 349 54.1667C347.159 54.1667 345.667 52.6743 345.667 50.8333C345.667 48.9924 347.159 47.5 349 47.5C350.841 47.5 352.333 48.9924 352.333 50.8333Z" stroke="#646464" stroke-width="1.25"/>
<path d="M350.667 56.6667H347.333C345.032 56.6667 343.167 58.5322 343.167 60.8334C343.167 61.7539 343.913 62.5 344.833 62.5H353.167C354.087 62.5 354.833 61.7539 354.833 60.8334C354.833 58.5322 352.968 56.6667 350.667 56.6667Z" stroke="#646464" stroke-width="1.25" stroke-linejoin="round"/>
<path d="M338.546 75.12C338.546 75.4733 338.463 75.8067 338.296 76.12C338.129 76.4333 337.863 76.69 337.496 76.89C337.129 77.0833 336.659 77.18 336.086 77.18H334.826V80H333.686V73.05H336.086C336.619 73.05 337.069 73.1433 337.436 73.33C337.809 73.51 338.086 73.7567 338.266 74.07C338.453 74.3833 338.546 74.7333 338.546 75.12ZM336.086 76.25C336.519 76.25 336.843 76.1533 337.056 75.96C337.269 75.76 337.376 75.48 337.376 75.12C337.376 74.36 336.946 73.98 336.086 73.98H334.826V76.25H336.086ZM340.973 75.29C341.14 75.01 341.36 74.7933 341.633 74.64C341.913 74.48 342.243 74.4 342.623 74.4V75.58H342.333C341.887 75.58 341.547 75.6933 341.313 75.92C341.087 76.1467 340.973 76.54 340.973 77.1V80H339.833V74.49H340.973V75.29ZM346.261 80.09C345.741 80.09 345.271 79.9733 344.851 79.74C344.431 79.5 344.101 79.1667 343.861 78.74C343.621 78.3067 343.501 77.8067 343.501 77.24C343.501 76.68 343.625 76.1833 343.871 75.75C344.118 75.3167 344.455 74.9833 344.881 74.75C345.308 74.5167 345.785 74.4 346.311 74.4C346.838 74.4 347.315 74.5167 347.741 74.75C348.168 74.9833 348.505 75.3167 348.751 75.75C348.998 76.1833 349.121 76.68 349.121 77.24C349.121 77.8 348.995 78.2967 348.741 78.73C348.488 79.1633 348.141 79.5 347.701 79.74C347.268 79.9733 346.788 80.09 346.261 80.09ZM346.261 79.1C346.555 79.1 346.828 79.03 347.081 78.89C347.341 78.75 347.551 78.54 347.711 78.26C347.871 77.98 347.951 77.64 347.951 77.24C347.951 76.84 347.875 76.5033 347.721 76.23C347.568 75.95 347.365 75.74 347.111 75.6C346.858 75.46 346.585 75.39 346.291 75.39C345.998 75.39 345.725 75.46 345.471 75.6C345.225 75.74 345.028 75.95 344.881 76.23C344.735 76.5033 344.661 76.84 344.661 77.24C344.661 77.8333 344.811 78.2933 345.111 78.62C345.418 78.94 345.801 79.1 346.261 79.1ZM352.758 75.42H351.738V80H350.588V75.42H349.938V74.49H350.588V74.1C350.588 73.4667 350.755 73.0067 351.088 72.72C351.428 72.4267 351.958 72.28 352.678 72.28V73.23C352.332 73.23 352.088 73.2967 351.948 73.43C351.808 73.5567 351.738 73.78 351.738 74.1V74.49H352.758V75.42ZM354.549 73.76C354.342 73.76 354.169 73.69 354.029 73.55C353.889 73.41 353.819 73.2367 353.819 73.03C353.819 72.8233 353.889 72.65 354.029 72.51C354.169 72.37 354.342 72.3 354.549 72.3C354.749 72.3 354.919 72.37 355.059 72.51C355.199 72.65 355.269 72.8233 355.269 73.03C355.269 73.2367 355.199 73.41 355.059 73.55C354.919 73.69 354.749 73.76 354.549 73.76ZM355.109 74.49V80H353.969V74.49H355.109ZM357.945 72.6V80H356.805V72.6H357.945ZM364.692 77.11C364.692 77.3167 364.679 77.5033 364.652 77.67H360.442C360.475 78.11 360.639 78.4633 360.932 78.73C361.225 78.9967 361.585 79.13 362.012 79.13C362.625 79.13 363.059 78.8733 363.312 78.36H364.542C364.375 78.8667 364.072 79.2833 363.632 79.61C363.199 79.93 362.659 80.09 362.012 80.09C361.485 80.09 361.012 79.9733 360.592 79.74C360.179 79.5 359.852 79.1667 359.612 78.74C359.379 78.3067 359.262 77.8067 359.262 77.24C359.262 76.6733 359.375 76.1767 359.602 75.75C359.835 75.3167 360.159 74.9833 360.572 74.75C360.992 74.5167 361.472 74.4 362.012 74.4C362.532 74.4 362.995 74.5133 363.402 74.74C363.809 74.9667 364.125 75.2867 364.352 75.7C364.579 76.1067 364.692 76.5767 364.692 77.11ZM363.502 76.75C363.495 76.33 363.345 75.9933 363.052 75.74C362.759 75.4867 362.395 75.36 361.962 75.36C361.569 75.36 361.232 75.4867 360.952 75.74C360.672 75.9867 360.505 76.3233 360.452 76.75H363.502Z" fill="#646464"/>
</svg>
