<svg width="393" height="98" viewBox="0 0 393 98" fill="none" xmlns="http://www.w3.org/2000/svg">
<rect x="324" y="5" width="50" height="50" rx="25" fill="#111111"/>
<path d="M393 82C393 90.8366 385.837 98 377 98H16C7.16345 98 0 90.8366 0 82V46C0 37.1634 7.16344 30 16 30H303C311.837 30 318.662 37.6486 323.162 45.2538C328.384 54.0807 338.001 60 349 60C363.18 60 375.062 50.1621 378.193 36.9395C379.084 33.1775 382.134 30 386 30C389.866 30 393 33.134 393 37V82Z" fill="#111111"/>
<path d="M37.5 54.9913V57.0833C37.5 59.8331 37.5 61.2081 38.3543 62.0624C39.2085 62.9166 40.5835 62.9166 43.3333 62.9166H46.6667C49.4165 62.9166 50.7914 62.9166 51.6457 62.0624C52.5 61.2081 52.5 59.8331 52.5 57.0833V54.9913C52.5 53.5902 52.5 52.8898 52.2034 52.2834C51.9068 51.677 51.3539 51.2469 50.248 50.3867L48.5813 49.0904C46.8609 47.7524 46.0007 47.0833 45 47.0833C43.9992 47.0833 43.1391 47.7524 41.4187 49.0904L39.752 50.3867C38.6461 51.2469 38.0932 51.677 37.7966 52.2834C37.5 52.8898 37.5 53.5902 37.5 54.9913Z" stroke="#646464" stroke-width="1.25" stroke-linecap="round" stroke-linejoin="round"/>
<path d="M47.5 59.1667C46.8338 59.6854 45.9585 60 45 60C44.0414 60 43.1663 59.6854 42.5 59.1667" stroke="#646464" stroke-width="1.25" stroke-linecap="round" stroke-linejoin="round"/>
<path d="M36.0049 73.05V80H34.8649V76.96H31.5949V80H30.4549V73.05H31.5949V76.03H34.8649V73.05H36.0049ZM40.0957 80.09C39.5757 80.09 39.1057 79.9733 38.6857 79.74C38.2657 79.5 37.9357 79.1667 37.6957 78.74C37.4557 78.3067 37.3357 77.8067 37.3357 77.24C37.3357 76.68 37.459 76.1833 37.7057 75.75C37.9523 75.3167 38.289 74.9833 38.7157 74.75C39.1423 74.5167 39.619 74.4 40.1457 74.4C40.6723 74.4 41.149 74.5167 41.5757 74.75C42.0023 74.9833 42.339 75.3167 42.5857 75.75C42.8323 76.1833 42.9557 76.68 42.9557 77.24C42.9557 77.8 42.829 78.2967 42.5757 78.73C42.3223 79.1633 41.9757 79.5 41.5357 79.74C41.1023 79.9733 40.6223 80.09 40.0957 80.09ZM40.0957 79.1C40.389 79.1 40.6623 79.03 40.9157 78.89C41.1757 78.75 41.3857 78.54 41.5457 78.26C41.7057 77.98 41.7857 77.64 41.7857 77.24C41.7857 76.84 41.709 76.5033 41.5557 76.23C41.4023 75.95 41.199 75.74 40.9457 75.6C40.6923 75.46 40.419 75.39 40.1257 75.39C39.8323 75.39 39.559 75.46 39.3057 75.6C39.059 75.74 38.8623 75.95 38.7157 76.23C38.569 76.5033 38.4957 76.84 38.4957 77.24C38.4957 77.8333 38.6457 78.2933 38.9457 78.62C39.2523 78.94 39.6357 79.1 40.0957 79.1ZM50.9526 74.4C51.3859 74.4 51.7726 74.49 52.1126 74.67C52.4593 74.85 52.7293 75.1167 52.9226 75.47C53.1226 75.8233 53.2226 76.25 53.2226 76.75V80H52.0926V76.92C52.0926 76.4267 51.9693 76.05 51.7226 75.79C51.4759 75.5233 51.1393 75.39 50.7126 75.39C50.2859 75.39 49.9459 75.5233 49.6926 75.79C49.4459 76.05 49.3226 76.4267 49.3226 76.92V80H48.1926V76.92C48.1926 76.4267 48.0693 76.05 47.8226 75.79C47.5759 75.5233 47.2393 75.39 46.8126 75.39C46.3859 75.39 46.0459 75.5233 45.7926 75.79C45.5459 76.05 45.4226 76.4267 45.4226 76.92V80H44.2826V74.49H45.4226V75.12C45.6093 74.8933 45.8459 74.7167 46.1326 74.59C46.4193 74.4633 46.7259 74.4 47.0526 74.4C47.4926 74.4 47.8859 74.4933 48.2326 74.68C48.5793 74.8667 48.8459 75.1367 49.0326 75.49C49.1993 75.1567 49.4593 74.8933 49.8126 74.7C50.1659 74.5 50.5459 74.4 50.9526 74.4ZM59.9232 77.11C59.9232 77.3167 59.9099 77.5033 59.8832 77.67H55.6732C55.7066 78.11 55.8699 78.4633 56.1632 78.73C56.4566 78.9967 56.8166 79.13 57.2432 79.13C57.8566 79.13 58.2899 78.8733 58.5432 78.36H59.7732C59.6066 78.8667 59.3032 79.2833 58.8632 79.61C58.4299 79.93 57.8899 80.09 57.2432 80.09C56.7166 80.09 56.2432 79.9733 55.8232 79.74C55.4099 79.5 55.0832 79.1667 54.8432 78.74C54.6099 78.3067 54.4932 77.8067 54.4932 77.24C54.4932 76.6733 54.6066 76.1767 54.8332 75.75C55.0666 75.3167 55.3899 74.9833 55.8032 74.75C56.2232 74.5167 56.7032 74.4 57.2432 74.4C57.7632 74.4 58.2266 74.5133 58.6332 74.74C59.0399 74.9667 59.3566 75.2867 59.5832 75.7C59.8099 76.1067 59.9232 76.5767 59.9232 77.11ZM58.7332 76.75C58.7266 76.33 58.5766 75.9933 58.2832 75.74C57.9899 75.4867 57.6266 75.36 57.1932 75.36C56.7999 75.36 56.4632 75.4867 56.1832 75.74C55.9032 75.9867 55.7366 76.3233 55.6832 76.75H58.7332Z" fill="#646464"/>
<path d="M125.167 59.1667L128.5 62.5" stroke="#646464" stroke-width="1.25" stroke-linecap="round" stroke-linejoin="round"/>
<path d="M126.833 54.1667C126.833 50.4848 123.849 47.5 120.167 47.5C116.485 47.5 113.5 50.4848 113.5 54.1667C113.5 57.8486 116.485 60.8333 120.167 60.8333C123.849 60.8333 126.833 57.8486 126.833 54.1667Z" stroke="#646464" stroke-width="1.25" stroke-linecap="round" stroke-linejoin="round"/>
<path d="M105.884 80.07C105.417 80.07 104.997 79.99 104.624 79.83C104.25 79.6633 103.957 79.43 103.744 79.13C103.53 78.83 103.424 78.48 103.424 78.08H104.644C104.67 78.38 104.787 78.6267 104.994 78.82C105.207 79.0133 105.504 79.11 105.884 79.11C106.277 79.11 106.584 79.0167 106.804 78.83C107.024 78.6367 107.134 78.39 107.134 78.09C107.134 77.8567 107.064 77.6667 106.924 77.52C106.79 77.3733 106.62 77.26 106.414 77.18C106.214 77.1 105.934 77.0133 105.574 76.92C105.12 76.8 104.75 76.68 104.464 76.56C104.184 76.4333 103.944 76.24 103.744 75.98C103.544 75.72 103.444 75.3733 103.444 74.94C103.444 74.54 103.544 74.19 103.744 73.89C103.944 73.59 104.224 73.36 104.584 73.2C104.944 73.04 105.36 72.96 105.834 72.96C106.507 72.96 107.057 73.13 107.484 73.47C107.917 73.8033 108.157 74.2633 108.204 74.85H106.944C106.924 74.5967 106.804 74.38 106.584 74.2C106.364 74.02 106.074 73.93 105.714 73.93C105.387 73.93 105.12 74.0133 104.914 74.18C104.707 74.3467 104.604 74.5867 104.604 74.9C104.604 75.1133 104.667 75.29 104.794 75.43C104.927 75.5633 105.094 75.67 105.294 75.75C105.494 75.83 105.767 75.9167 106.114 76.01C106.574 76.1367 106.947 76.2633 107.234 76.39C107.527 76.5167 107.774 76.7133 107.974 76.98C108.18 77.24 108.284 77.59 108.284 78.03C108.284 78.3833 108.187 78.7167 107.994 79.03C107.807 79.3433 107.53 79.5967 107.164 79.79C106.804 79.9767 106.377 80.07 105.884 80.07ZM114.879 77.11C114.879 77.3167 114.866 77.5033 114.839 77.67H110.629C110.662 78.11 110.826 78.4633 111.119 78.73C111.412 78.9967 111.772 79.13 112.199 79.13C112.812 79.13 113.246 78.8733 113.499 78.36H114.729C114.562 78.8667 114.259 79.2833 113.819 79.61C113.386 79.93 112.846 80.09 112.199 80.09C111.672 80.09 111.199 79.9733 110.779 79.74C110.366 79.5 110.039 79.1667 109.799 78.74C109.566 78.3067 109.449 77.8067 109.449 77.24C109.449 76.6733 109.562 76.1767 109.789 75.75C110.022 75.3167 110.346 74.9833 110.759 74.75C111.179 74.5167 111.659 74.4 112.199 74.4C112.719 74.4 113.182 74.5133 113.589 74.74C113.996 74.9667 114.312 75.2867 114.539 75.7C114.766 76.1067 114.879 76.5767 114.879 77.11ZM113.689 76.75C113.682 76.33 113.532 75.9933 113.239 75.74C112.946 75.4867 112.582 75.36 112.149 75.36C111.756 75.36 111.419 75.4867 111.139 75.74C110.859 75.9867 110.692 76.3233 110.639 76.75H113.689ZM115.821 77.22C115.821 76.6667 115.934 76.1767 116.161 75.75C116.394 75.3233 116.707 74.9933 117.101 74.76C117.501 74.52 117.941 74.4 118.421 74.4C118.854 74.4 119.231 74.4867 119.551 74.66C119.877 74.8267 120.137 75.0367 120.331 75.29V74.49H121.481V80H120.331V79.18C120.137 79.44 119.874 79.6567 119.541 79.83C119.207 80.0033 118.827 80.09 118.401 80.09C117.927 80.09 117.494 79.97 117.101 79.73C116.707 79.4833 116.394 79.1433 116.161 78.71C115.934 78.27 115.821 77.7733 115.821 77.22ZM120.331 77.24C120.331 76.86 120.251 76.53 120.091 76.25C119.937 75.97 119.734 75.7567 119.481 75.61C119.227 75.4633 118.954 75.39 118.661 75.39C118.367 75.39 118.094 75.4633 117.841 75.61C117.587 75.75 117.381 75.96 117.221 76.24C117.067 76.5133 116.991 76.84 116.991 77.22C116.991 77.6 117.067 77.9333 117.221 78.22C117.381 78.5067 117.587 78.7267 117.841 78.88C118.101 79.0267 118.374 79.1 118.661 79.1C118.954 79.1 119.227 79.0267 119.481 78.88C119.734 78.7333 119.937 78.52 120.091 78.24C120.251 77.9533 120.331 77.62 120.331 77.24ZM124.318 75.29C124.485 75.01 124.705 74.7933 124.978 74.64C125.258 74.48 125.588 74.4 125.968 74.4V75.58H125.678C125.231 75.58 124.891 75.6933 124.658 75.92C124.431 76.1467 124.318 76.54 124.318 77.1V80H123.178V74.49H124.318V75.29ZM126.836 77.24C126.836 76.6733 126.949 76.1767 127.176 75.75C127.409 75.3167 127.729 74.9833 128.136 74.75C128.543 74.5167 129.009 74.4 129.536 74.4C130.203 74.4 130.753 74.56 131.186 74.88C131.626 75.1933 131.923 75.6433 132.076 76.23H130.846C130.746 75.9567 130.586 75.7433 130.366 75.59C130.146 75.4367 129.869 75.36 129.536 75.36C129.069 75.36 128.696 75.5267 128.416 75.86C128.143 76.1867 128.006 76.6467 128.006 77.24C128.006 77.8333 128.143 78.2967 128.416 78.63C128.696 78.9633 129.069 79.13 129.536 79.13C130.196 79.13 130.633 78.84 130.846 78.26H132.076C131.916 78.82 131.616 79.2667 131.176 79.6C130.736 79.9267 130.189 80.09 129.536 80.09C129.009 80.09 128.543 79.9733 128.136 79.74C127.729 79.5 127.409 79.1667 127.176 78.74C126.949 78.3067 126.836 77.8067 126.836 77.24ZM136.262 74.4C136.682 74.4 137.055 74.49 137.382 74.67C137.715 74.85 137.975 75.1167 138.162 75.47C138.355 75.8233 138.452 76.25 138.452 76.75V80H137.322V76.92C137.322 76.4267 137.199 76.05 136.952 75.79C136.705 75.5233 136.369 75.39 135.942 75.39C135.515 75.39 135.175 75.5233 134.922 75.79C134.675 76.05 134.552 76.4267 134.552 76.92V80H133.412V72.6H134.552V75.13C134.745 74.8967 134.989 74.7167 135.282 74.59C135.582 74.4633 135.909 74.4 136.262 74.4Z" fill="#646464"/>
<path d="M195.333 50.8333L194.903 51.995C194.34 53.5183 194.058 54.28 193.502 54.8356C192.947 55.3912 192.185 55.6731 190.662 56.2368L189.5 56.6666L190.662 57.0965C192.185 57.6602 192.947 57.9421 193.502 58.4976C194.058 59.0533 194.34 59.815 194.903 61.3382L195.333 62.5L195.763 61.3382C196.327 59.815 196.609 59.0533 197.164 58.4976C197.72 57.9421 198.482 57.6602 200.005 57.0965L201.167 56.6666L200.005 56.2368C198.482 55.6731 197.72 55.3912 197.164 54.8356C196.609 54.28 196.327 53.5183 195.763 51.995L195.333 50.8333Z" stroke="#646464" stroke-width="1.25" stroke-linejoin="round"/>
<path d="M202 47.5L201.816 47.9979C201.574 48.6507 201.453 48.9772 201.215 49.2153C200.977 49.4534 200.651 49.5742 199.998 49.8158L199.5 50L199.998 50.1842C200.651 50.4258 200.977 50.5466 201.215 50.7847C201.453 51.0228 201.574 51.3493 201.816 52.0021L202 52.5L202.184 52.0021C202.426 51.3493 202.547 51.0228 202.785 50.7847C203.023 50.5466 203.349 50.4258 204.002 50.1842L204.5 50L204.002 49.8158C203.349 49.5742 203.023 49.4534 202.785 49.2153C202.547 48.9772 202.426 48.6507 202.184 47.9979L202 47.5Z" stroke="#646464" stroke-width="1.25" stroke-linejoin="round"/>
<path d="M177.348 73.05V80H176.208V73.05H177.348ZM185.714 74.4C186.148 74.4 186.534 74.49 186.874 74.67C187.221 74.85 187.491 75.1167 187.684 75.47C187.884 75.8233 187.984 76.25 187.984 76.75V80H186.854V76.92C186.854 76.4267 186.731 76.05 186.484 75.79C186.238 75.5233 185.901 75.39 185.474 75.39C185.048 75.39 184.708 75.5233 184.454 75.79C184.208 76.05 184.084 76.4267 184.084 76.92V80H182.954V76.92C182.954 76.4267 182.831 76.05 182.584 75.79C182.338 75.5233 182.001 75.39 181.574 75.39C181.148 75.39 180.808 75.5233 180.554 75.79C180.308 76.05 180.184 76.4267 180.184 76.92V80H179.044V74.49H180.184V75.12C180.371 74.8933 180.608 74.7167 180.894 74.59C181.181 74.4633 181.488 74.4 181.814 74.4C182.254 74.4 182.648 74.4933 182.994 74.68C183.341 74.8667 183.608 75.1367 183.794 75.49C183.961 75.1567 184.221 74.8933 184.574 74.7C184.928 74.5 185.308 74.4 185.714 74.4ZM189.255 77.22C189.255 76.6667 189.368 76.1767 189.595 75.75C189.828 75.3233 190.142 74.9933 190.535 74.76C190.935 74.52 191.375 74.4 191.855 74.4C192.288 74.4 192.665 74.4867 192.985 74.66C193.312 74.8267 193.572 75.0367 193.765 75.29V74.49H194.915V80H193.765V79.18C193.572 79.44 193.308 79.6567 192.975 79.83C192.642 80.0033 192.262 80.09 191.835 80.09C191.362 80.09 190.928 79.97 190.535 79.73C190.142 79.4833 189.828 79.1433 189.595 78.71C189.368 78.27 189.255 77.7733 189.255 77.22ZM193.765 77.24C193.765 76.86 193.685 76.53 193.525 76.25C193.372 75.97 193.168 75.7567 192.915 75.61C192.662 75.4633 192.388 75.39 192.095 75.39C191.802 75.39 191.528 75.4633 191.275 75.61C191.022 75.75 190.815 75.96 190.655 76.24C190.502 76.5133 190.425 76.84 190.425 77.22C190.425 77.6 190.502 77.9333 190.655 78.22C190.815 78.5067 191.022 78.7267 191.275 78.88C191.535 79.0267 191.808 79.1 192.095 79.1C192.388 79.1 192.662 79.0267 192.915 78.88C193.168 78.7333 193.372 78.52 193.525 78.24C193.685 77.9533 193.765 77.62 193.765 77.24ZM198.832 74.4C199.259 74.4 199.636 74.4867 199.962 74.66C200.296 74.8267 200.556 75.0367 200.742 75.29V74.49H201.892V80.09C201.892 80.5967 201.786 81.0467 201.572 81.44C201.359 81.84 201.049 82.1533 200.642 82.38C200.242 82.6067 199.762 82.72 199.202 82.72C198.456 82.72 197.836 82.5433 197.342 82.19C196.849 81.8433 196.569 81.37 196.502 80.77H197.632C197.719 81.0567 197.902 81.2867 198.182 81.46C198.469 81.64 198.809 81.73 199.202 81.73C199.662 81.73 200.032 81.59 200.312 81.31C200.599 81.03 200.742 80.6233 200.742 80.09V79.17C200.549 79.43 200.286 79.65 199.952 79.83C199.626 80.0033 199.252 80.09 198.832 80.09C198.352 80.09 197.912 79.97 197.512 79.73C197.119 79.4833 196.806 79.1433 196.572 78.71C196.346 78.27 196.232 77.7733 196.232 77.22C196.232 76.6667 196.346 76.1767 196.572 75.75C196.806 75.3233 197.119 74.9933 197.512 74.76C197.912 74.52 198.352 74.4 198.832 74.4ZM200.742 77.24C200.742 76.86 200.662 76.53 200.502 76.25C200.349 75.97 200.146 75.7567 199.892 75.61C199.639 75.4633 199.366 75.39 199.072 75.39C198.779 75.39 198.506 75.4633 198.252 75.61C197.999 75.75 197.792 75.96 197.632 76.24C197.479 76.5133 197.402 76.84 197.402 77.22C197.402 77.6 197.479 77.9333 197.632 78.22C197.792 78.5067 197.999 78.7267 198.252 78.88C198.512 79.0267 198.786 79.1 199.072 79.1C199.366 79.1 199.639 79.0267 199.892 78.88C200.146 78.7333 200.349 78.52 200.502 78.24C200.662 77.9533 200.742 77.62 200.742 77.24ZM204.17 73.76C203.963 73.76 203.79 73.69 203.65 73.55C203.51 73.41 203.44 73.2367 203.44 73.03C203.44 72.8233 203.51 72.65 203.65 72.51C203.79 72.37 203.963 72.3 204.17 72.3C204.37 72.3 204.54 72.37 204.68 72.51C204.82 72.65 204.89 72.8233 204.89 73.03C204.89 73.2367 204.82 73.41 204.68 73.55C204.54 73.69 204.37 73.76 204.17 73.76ZM204.73 74.49V80H203.59V74.49H204.73ZM209.206 74.4C209.64 74.4 210.026 74.49 210.366 74.67C210.713 74.85 210.983 75.1167 211.176 75.47C211.37 75.8233 211.466 76.25 211.466 76.75V80H210.336V76.92C210.336 76.4267 210.213 76.05 209.966 75.79C209.72 75.5233 209.383 75.39 208.956 75.39C208.53 75.39 208.19 75.5233 207.936 75.79C207.69 76.05 207.566 76.4267 207.566 76.92V80H206.426V74.49H207.566V75.12C207.753 74.8933 207.99 74.7167 208.276 74.59C208.57 74.4633 208.88 74.4 209.206 74.4ZM218.171 77.11C218.171 77.3167 218.157 77.5033 218.131 77.67H213.921C213.954 78.11 214.117 78.4633 214.411 78.73C214.704 78.9967 215.064 79.13 215.491 79.13C216.104 79.13 216.537 78.8733 216.791 78.36H218.021C217.854 78.8667 217.551 79.2833 217.111 79.61C216.677 79.93 216.137 80.09 215.491 80.09C214.964 80.09 214.491 79.9733 214.071 79.74C213.657 79.5 213.331 79.1667 213.091 78.74C212.857 78.3067 212.741 77.8067 212.741 77.24C212.741 76.6733 212.854 76.1767 213.081 75.75C213.314 75.3167 213.637 74.9833 214.051 74.75C214.471 74.5167 214.951 74.4 215.491 74.4C216.011 74.4 216.474 74.5133 216.881 74.74C217.287 74.9667 217.604 75.2867 217.831 75.7C218.057 76.1067 218.171 76.5767 218.171 77.11ZM216.981 76.75C216.974 76.33 216.824 75.9933 216.531 75.74C216.237 75.4867 215.874 75.36 215.441 75.36C215.047 75.36 214.711 75.4867 214.431 75.74C214.151 75.9867 213.984 76.3233 213.931 76.75H216.981Z" fill="#646464"/>
<path d="M280.54 47.5441C278.725 45.5894 265.072 50.3776 265.083 52.1258C265.096 54.1082 270.415 54.7181 271.889 55.1317C272.776 55.3804 273.013 55.6354 273.218 56.5651C274.143 60.7754 274.608 62.8696 275.668 62.9163C277.356 62.991 282.311 49.4516 280.54 47.5441Z" stroke="#646464" stroke-width="1.25"/>
<path d="M272.583 55.4167L275.5 52.5" stroke="#646464" stroke-width="1.25" stroke-linecap="round" stroke-linejoin="round"/>
<path d="M257.77 73.05V80H256.63V75.24L254.51 80H253.72L251.59 75.24V80H250.45V73.05H251.68L254.12 78.5L256.55 73.05H257.77ZM264.518 77.11C264.518 77.3167 264.505 77.5033 264.478 77.67H260.268C260.301 78.11 260.465 78.4633 260.758 78.73C261.051 78.9967 261.411 79.13 261.838 79.13C262.451 79.13 262.885 78.8733 263.138 78.36H264.368C264.201 78.8667 263.898 79.2833 263.458 79.61C263.025 79.93 262.485 80.09 261.838 80.09C261.311 80.09 260.838 79.9733 260.418 79.74C260.005 79.5 259.678 79.1667 259.438 78.74C259.205 78.3067 259.088 77.8067 259.088 77.24C259.088 76.6733 259.201 76.1767 259.428 75.75C259.661 75.3167 259.985 74.9833 260.398 74.75C260.818 74.5167 261.298 74.4 261.838 74.4C262.358 74.4 262.821 74.5133 263.228 74.74C263.635 74.9667 263.951 75.2867 264.178 75.7C264.405 76.1067 264.518 76.5767 264.518 77.11ZM263.328 76.75C263.321 76.33 263.171 75.9933 262.878 75.74C262.585 75.4867 262.221 75.36 261.788 75.36C261.395 75.36 261.058 75.4867 260.778 75.74C260.498 75.9867 260.331 76.3233 260.278 76.75H263.328ZM267.84 80.09C267.407 80.09 267.017 80.0133 266.67 79.86C266.33 79.7 266.06 79.4867 265.86 79.22C265.66 78.9467 265.553 78.6433 265.54 78.31H266.72C266.74 78.5433 266.85 78.74 267.05 78.9C267.257 79.0533 267.513 79.13 267.82 79.13C268.14 79.13 268.387 79.07 268.56 78.95C268.74 78.8233 268.83 78.6633 268.83 78.47C268.83 78.2633 268.73 78.11 268.53 78.01C268.337 77.91 268.027 77.8 267.6 77.68C267.187 77.5667 266.85 77.4567 266.59 77.35C266.33 77.2433 266.103 77.08 265.91 76.86C265.723 76.64 265.63 76.35 265.63 75.99C265.63 75.6967 265.717 75.43 265.89 75.19C266.063 74.9433 266.31 74.75 266.63 74.61C266.957 74.47 267.33 74.4 267.75 74.4C268.377 74.4 268.88 74.56 269.26 74.88C269.647 75.1933 269.853 75.6233 269.88 76.17H268.74C268.72 75.9233 268.62 75.7267 268.44 75.58C268.26 75.4333 268.017 75.36 267.71 75.36C267.41 75.36 267.18 75.4167 267.02 75.53C266.86 75.6433 266.78 75.7933 266.78 75.98C266.78 76.1267 266.833 76.25 266.94 76.35C267.047 76.45 267.177 76.53 267.33 76.59C267.483 76.6433 267.71 76.7133 268.01 76.8C268.41 76.9067 268.737 77.0167 268.99 77.13C269.25 77.2367 269.473 77.3967 269.66 77.61C269.847 77.8233 269.943 78.1067 269.95 78.46C269.95 78.7733 269.863 79.0533 269.69 79.3C269.517 79.5467 269.27 79.74 268.95 79.88C268.637 80.02 268.267 80.09 267.84 80.09ZM273.382 80.09C272.949 80.09 272.559 80.0133 272.212 79.86C271.872 79.7 271.602 79.4867 271.402 79.22C271.202 78.9467 271.095 78.6433 271.082 78.31H272.262C272.282 78.5433 272.392 78.74 272.592 78.9C272.799 79.0533 273.055 79.13 273.362 79.13C273.682 79.13 273.929 79.07 274.102 78.95C274.282 78.8233 274.372 78.6633 274.372 78.47C274.372 78.2633 274.272 78.11 274.072 78.01C273.879 77.91 273.569 77.8 273.142 77.68C272.729 77.5667 272.392 77.4567 272.132 77.35C271.872 77.2433 271.645 77.08 271.452 76.86C271.265 76.64 271.172 76.35 271.172 75.99C271.172 75.6967 271.259 75.43 271.432 75.19C271.605 74.9433 271.852 74.75 272.172 74.61C272.499 74.47 272.872 74.4 273.292 74.4C273.919 74.4 274.422 74.56 274.802 74.88C275.189 75.1933 275.395 75.6233 275.422 76.17H274.282C274.262 75.9233 274.162 75.7267 273.982 75.58C273.802 75.4333 273.559 75.36 273.252 75.36C272.952 75.36 272.722 75.4167 272.562 75.53C272.402 75.6433 272.322 75.7933 272.322 75.98C272.322 76.1267 272.375 76.25 272.482 76.35C272.589 76.45 272.719 76.53 272.872 76.59C273.025 76.6433 273.252 76.7133 273.552 76.8C273.952 76.9067 274.279 77.0167 274.532 77.13C274.792 77.2367 275.015 77.3967 275.202 77.61C275.389 77.8233 275.485 78.1067 275.492 78.46C275.492 78.7733 275.405 79.0533 275.232 79.3C275.059 79.5467 274.812 79.74 274.492 79.88C274.179 80.02 273.809 80.09 273.382 80.09ZM276.544 77.22C276.544 76.6667 276.657 76.1767 276.884 75.75C277.117 75.3233 277.43 74.9933 277.824 74.76C278.224 74.52 278.664 74.4 279.144 74.4C279.577 74.4 279.954 74.4867 280.274 74.66C280.6 74.8267 280.86 75.0367 281.054 75.29V74.49H282.204V80H281.054V79.18C280.86 79.44 280.597 79.6567 280.264 79.83C279.93 80.0033 279.55 80.09 279.124 80.09C278.65 80.09 278.217 79.97 277.824 79.73C277.43 79.4833 277.117 79.1433 276.884 78.71C276.657 78.27 276.544 77.7733 276.544 77.22ZM281.054 77.24C281.054 76.86 280.974 76.53 280.814 76.25C280.66 75.97 280.457 75.7567 280.204 75.61C279.95 75.4633 279.677 75.39 279.384 75.39C279.09 75.39 278.817 75.4633 278.564 75.61C278.31 75.75 278.104 75.96 277.944 76.24C277.79 76.5133 277.714 76.84 277.714 77.22C277.714 77.6 277.79 77.9333 277.944 78.22C278.104 78.5067 278.31 78.7267 278.564 78.88C278.824 79.0267 279.097 79.1 279.384 79.1C279.677 79.1 279.95 79.0267 280.204 78.88C280.457 78.7333 280.66 78.52 280.814 78.24C280.974 77.9533 281.054 77.62 281.054 77.24ZM286.121 74.4C286.548 74.4 286.924 74.4867 287.251 74.66C287.584 74.8267 287.844 75.0367 288.031 75.29V74.49H289.181V80.09C289.181 80.5967 289.074 81.0467 288.861 81.44C288.648 81.84 288.338 82.1533 287.931 82.38C287.531 82.6067 287.051 82.72 286.491 82.72C285.744 82.72 285.124 82.5433 284.631 82.19C284.138 81.8433 283.858 81.37 283.791 80.77H284.921C285.008 81.0567 285.191 81.2867 285.471 81.46C285.758 81.64 286.098 81.73 286.491 81.73C286.951 81.73 287.321 81.59 287.601 81.31C287.888 81.03 288.031 80.6233 288.031 80.09V79.17C287.838 79.43 287.574 79.65 287.241 79.83C286.914 80.0033 286.541 80.09 286.121 80.09C285.641 80.09 285.201 79.97 284.801 79.73C284.408 79.4833 284.094 79.1433 283.861 78.71C283.634 78.27 283.521 77.7733 283.521 77.22C283.521 76.6667 283.634 76.1767 283.861 75.75C284.094 75.3233 284.408 74.9933 284.801 74.76C285.201 74.52 285.641 74.4 286.121 74.4ZM288.031 77.24C288.031 76.86 287.951 76.53 287.791 76.25C287.638 75.97 287.434 75.7567 287.181 75.61C286.928 75.4633 286.654 75.39 286.361 75.39C286.068 75.39 285.794 75.4633 285.541 75.61C285.288 75.75 285.081 75.96 284.921 76.24C284.768 76.5133 284.691 76.84 284.691 77.22C284.691 77.6 284.768 77.9333 284.921 78.22C285.081 78.5067 285.288 78.7267 285.541 78.88C285.801 79.0267 286.074 79.1 286.361 79.1C286.654 79.1 286.928 79.0267 287.181 78.88C287.434 78.7333 287.638 78.52 287.791 78.24C287.951 77.9533 288.031 77.62 288.031 77.24ZM295.928 77.11C295.928 77.3167 295.915 77.5033 295.888 77.67H291.678C291.712 78.11 291.875 78.4633 292.168 78.73C292.462 78.9967 292.822 79.13 293.248 79.13C293.862 79.13 294.295 78.8733 294.548 78.36H295.778C295.612 78.8667 295.308 79.2833 294.868 79.61C294.435 79.93 293.895 80.09 293.248 80.09C292.722 80.09 292.248 79.9733 291.828 79.74C291.415 79.5 291.088 79.1667 290.848 78.74C290.615 78.3067 290.498 77.8067 290.498 77.24C290.498 76.6733 290.612 76.1767 290.838 75.75C291.072 75.3167 291.395 74.9833 291.808 74.75C292.228 74.5167 292.708 74.4 293.248 74.4C293.768 74.4 294.232 74.5133 294.638 74.74C295.045 74.9667 295.362 75.2867 295.588 75.7C295.815 76.1067 295.928 76.5767 295.928 77.11ZM294.738 76.75C294.732 76.33 294.582 75.9933 294.288 75.74C293.995 75.4867 293.632 75.36 293.198 75.36C292.805 75.36 292.468 75.4867 292.188 75.74C291.908 75.9867 291.742 76.3233 291.688 76.75H294.738Z" fill="#646464"/>
<path d="M353 25C353 27.2091 351.209 29 349 29C346.791 29 345 27.2091 345 25C345 22.7909 346.791 21 349 21C351.209 21 353 22.7909 353 25Z" fill="#353535" stroke="#EDEDED" stroke-width="1.5"/>
<path d="M351 32.0001H347C344.239 32.0001 342 34.2387 342 37.0001C342 38.1047 342.896 39.0001 344 39.0001H354C355.105 39.0001 356 38.1047 356 37.0001C356 34.2387 353.762 32.0001 351 32.0001Z" fill="#353535" stroke="#EDEDED" stroke-width="1.5" stroke-linejoin="round"/>
<path d="M338.335 75.18C338.335 75.5533 338.245 75.9033 338.065 76.23C337.892 76.5567 337.615 76.82 337.235 77.02C336.862 77.22 336.389 77.32 335.815 77.32H334.645V80H333.245V73.02H335.815C336.355 73.02 336.815 73.1133 337.195 73.3C337.575 73.4867 337.859 73.7433 338.045 74.07C338.239 74.3967 338.335 74.7667 338.335 75.18ZM335.755 76.19C336.142 76.19 336.429 76.1033 336.615 75.93C336.802 75.75 336.895 75.5 336.895 75.18C336.895 74.5 336.515 74.16 335.755 74.16H334.645V76.19H335.755ZM340.929 75.32C341.109 75.0267 341.343 74.7967 341.629 74.63C341.923 74.4633 342.256 74.38 342.629 74.38V75.85H342.259C341.819 75.85 341.486 75.9533 341.259 76.16C341.039 76.3667 340.929 76.7267 340.929 77.24V80H339.529V74.46H340.929V75.32ZM346.232 80.09C345.699 80.09 345.219 79.9733 344.792 79.74C344.366 79.5 344.029 79.1633 343.782 78.73C343.542 78.2967 343.422 77.7967 343.422 77.23C343.422 76.6633 343.546 76.1633 343.792 75.73C344.046 75.2967 344.389 74.9633 344.822 74.73C345.256 74.49 345.739 74.37 346.272 74.37C346.806 74.37 347.289 74.49 347.722 74.73C348.156 74.9633 348.496 75.2967 348.742 75.73C348.996 76.1633 349.122 76.6633 349.122 77.23C349.122 77.7967 348.992 78.2967 348.732 78.73C348.479 79.1633 348.132 79.5 347.692 79.74C347.259 79.9733 346.772 80.09 346.232 80.09ZM346.232 78.87C346.486 78.87 346.722 78.81 346.942 78.69C347.169 78.5633 347.349 78.3767 347.482 78.13C347.616 77.8833 347.682 77.5833 347.682 77.23C347.682 76.7033 347.542 76.3 347.262 76.02C346.989 75.7333 346.652 75.59 346.252 75.59C345.852 75.59 345.516 75.7333 345.242 76.02C344.976 76.3 344.842 76.7033 344.842 77.23C344.842 77.7567 344.972 78.1633 345.232 78.45C345.499 78.73 345.832 78.87 346.232 78.87ZM352.889 75.61H351.919V80H350.499V75.61H349.869V74.46H350.499V74.18C350.499 73.5 350.693 73 351.079 72.68C351.466 72.36 352.049 72.21 352.829 72.23V73.41C352.489 73.4033 352.253 73.46 352.119 73.58C351.986 73.7 351.919 73.9167 351.919 74.23V74.46H352.889V75.61ZM354.706 73.8C354.46 73.8 354.253 73.7233 354.086 73.57C353.926 73.41 353.846 73.2133 353.846 72.98C353.846 72.7467 353.926 72.5533 354.086 72.4C354.253 72.24 354.46 72.16 354.706 72.16C354.953 72.16 355.156 72.24 355.316 72.4C355.483 72.5533 355.566 72.7467 355.566 72.98C355.566 73.2133 355.483 73.41 355.316 73.57C355.156 73.7233 354.953 73.8 354.706 73.8ZM355.396 74.46V80H353.996V74.46H355.396ZM358.38 72.6V80H356.98V72.6H358.38ZM365.113 77.11C365.113 77.31 365.1 77.49 365.073 77.65H361.023C361.056 78.05 361.196 78.3633 361.443 78.59C361.69 78.8167 361.993 78.93 362.353 78.93C362.873 78.93 363.243 78.7067 363.463 78.26H364.973C364.813 78.7933 364.506 79.2333 364.053 79.58C363.6 79.92 363.043 80.09 362.383 80.09C361.85 80.09 361.37 79.9733 360.943 79.74C360.523 79.5 360.193 79.1633 359.953 78.73C359.72 78.2967 359.603 77.7967 359.603 77.23C359.603 76.6567 359.72 76.1533 359.953 75.72C360.186 75.2867 360.513 74.9533 360.933 74.72C361.353 74.4867 361.836 74.37 362.383 74.37C362.91 74.37 363.38 74.4833 363.793 74.71C364.213 74.9367 364.536 75.26 364.763 75.68C364.996 76.0933 365.113 76.57 365.113 77.11ZM363.663 76.71C363.656 76.35 363.526 76.0633 363.273 75.85C363.02 75.63 362.71 75.52 362.343 75.52C361.996 75.52 361.703 75.6267 361.463 75.84C361.23 76.0467 361.086 76.3367 361.033 76.71H363.663Z" fill="#EDEDED"/>
</svg>
